<svg xmlns="http://www.w3.org/2000/svg" width="256" height="256"><path fill="#1976D2" fill-opacity=".016" fill-rule="evenodd" d="M0 128.004v128.004l128.25-.254 128.25-.254.254-127.75L257.008 0H0zm.485.496c0 70.4.119 99.053.265 63.672s.146-92.98 0-128S.485 58.1.485 128.5"/><path fill="#1976D2" fill-opacity=".418" fill-rule="evenodd" d="M109.668 1.568C55.329 10.021 14.264 48.852 2.359 103.04.901 109.674.521 115.386.595 129.5c.088 16.695.316 18.842 3.146 29.609 5.352 20.367 12.894 35.036 26.505 51.551 6.241 7.573 7.286 8.431 9.627 7.904 2.16-.486 2.316-.402.877.472-2.791 1.696-2.17 6.188 1.318 9.527 2.644 2.532 3.816 2.93 8.489 2.884 2.983-.029 4.937.247 4.344.614-.629.389.361 1.556 2.379 2.803 4.29 2.651 5.094 2.676 4.43.135-.288-1.101-.13-1.759.35-1.462.481.297.81 2.957.733 5.911-.165 6.269 1.89 10.183 5.871 11.182 1.515.381 3.475.14 4.605-.566 1.411-.881 2.273-.922 3.049-.146 1.613 1.613 7.314 1.307 9.111-.489.864-.865 1.571-1.145 1.571-.623 0 1.192 13.811 4.661 24.935 6.263 10.99 1.583 31.803.61 43.473-2.033 4.899-1.11 9.138-2.249 9.42-2.531s-.46-1.549-1.651-2.816l-2.163-2.303-8.757 1.89c-13.038 2.814-35.515 2.767-48.914-.101-11.636-2.492-14.969-2.688-15.681-.925-.301.747-.536.545-.583-.5-.09-1.988-.476-1.947 17.921-1.923l12.5.016 4.75-4.918c2.612-2.705 4.75-5.519 4.75-6.254s-1.688-2.425-3.75-3.755c-3.15-2.033-3.802-3.057-4.075-6.405-.178-2.192-.796-4.554-1.372-5.248-1.552-1.87-5.249-1.532-7.234.66-1.324 1.464-2.569 1.789-5.212 1.36-2.952-.479-3.555-.243-4.031 1.577-.307 1.177-1.321 2.14-2.252 2.14s-2.565.661-3.633 1.468c-2.843 2.15-4.441 1.851-4.441-.833 0-3.515-3.662-7.629-6.823-7.667-1.472-.017-3.551-.692-4.618-1.5-2.985-2.257-4.484-1.88-16.014 4.032C53.468 223.666 48 225.26 48 223.031c0-.532.675-.709 1.5-.393 2.984 1.145 1.415-.584-2-2.205-1.925-.913-3.5-2.101-3.5-2.64 0-.538-2.461-3.698-5.47-7.023C23.347 193.992 13.132 173.757 8.358 151c-2.172-10.354-2.4-32.969-.444-44 4.166-23.49 16.533-47.315 33.347-64.245 23.516-23.68 52.857-35.743 86.954-35.752 31.99-.008 60.221 11.126 82.907 32.699C235.625 63.003 249 94.181 249 128c0 32.997-12.387 63.042-35.429 85.929l-7.437 7.388 2.516 1.98 2.517 1.98 6.485-6.389c12.535-12.347 23.812-29.548 29.427-44.888 3.718-10.155 7.86-27.736 8.012-34 .09-3.747.242-4.082.909-2 .482 1.505.788-2.872.769-11-.02-8.364-.313-12.168-.769-10l-.737 3.5-.153-4.5c-.378-11.088-6.108-31.027-12.757-44.387-24.508-49.247-79.56-78.309-132.685-70.045m22.582 16.038c-.687.308-1.25 1.558-1.25 2.777s-.411 2.644-.912 3.167c-.952.991-1.482 5.743-1.233 11.053l.145 3.102 7.499-.102c4.252-.059 7.506-.536 7.515-1.103.009-.55.453-.325.986.5 1.084 1.677 1.094 1.661 1.57-2.451.187-1.623-.004-3.423-.426-4-.995-1.361-.848-2.554.644-5.238.806-1.45.873-2.402.198-2.819-.56-.347-.717-1.119-.348-1.716.387-.626.208-.799-.422-.409-.601.371-1.482-.02-1.958-.87-.888-1.588-9.621-2.963-12.008-1.891m1.563 1.077c.721.289 1.584.253 1.916-.079s-.258-.568-1.312-.525c-1.165.048-1.402.285-.604.604M102.5 20.985c-3.915.718-10.027 3.44-10.9 4.854-.499.807 2.482 12.016 3.694 13.886 1.002 1.548 9.251.632 12.484-1.386 1.253-.782 2.665-1.183 3.137-.892s1.472-.223 2.222-1.145c1.187-1.46 1.142-1.594-.344-1.037-1.462.548-1.571.281-.757-1.861.678-1.781.528-3.512-.52-6.02-.809-1.936-1.428-3.827-1.375-4.202.467-3.328-.292-3.546-7.641-2.197m35.5.897c0 .55.45 1.278 1 1.618s1 .168 1-.382-.45-1.278-1-1.618-1-.168-1 .382m16.484 2.19c-.371 1.689-.441 3.305-.155 3.59.801.802-2.073 8.225-3.888 10.04-1.422 1.421-1.437 1.721-.123 2.456.822.46 3.402 1.076 5.732 1.369s4.643.783 5.138 1.089 1.56.008 2.368-.663c1.109-.92 1.193-1.551.343-2.575-.619-.746-1.601-1.062-2.182-.703-.696.43-.784-.001-.259-1.261 3.123-7.493 4.554-11.735 4.108-12.181-.285-.286-.741.108-1.013.874-2.049 5.781-2.675 7.104-3.14 6.64-.291-.292.137-2.127.952-4.078l1.482-3.547-3.954-2.061c-2.175-1.134-4.13-2.061-4.344-2.061s-.694 1.382-1.065 3.072m-54.368 2.178c-.064 1.512.29 2.75.786 2.75s1.396 1.417 2 3.149c1.369 3.928 1.366 4.135-.057 3.256-.715-.443-.883-.275-.44.44.392.635 1.195 1.155 1.785 1.155 1.537 0 .24-6.948-1.56-8.356-.804-.629-1.672-2.044-1.93-3.144-.35-1.496-.497-1.307-.584.75M137.5 26c-.34.55-.168 1 .382 1s1.278-.45 1.618-1 .168-1-.382-1-1.278.45-1.618 1M80 28.927c0 .509.787 1.132 1.75 1.384 1.351.353 1.251.483-.441.573-1.205.064-2.468-.332-2.807-.88-.733-1.186-5.977 1.309-9.165 4.361-2.055 1.967-2.084 2.222-.568 5.103.878 1.667 1.664 3.83 1.748 4.805C70.701 46.42 75.864 52 77.666 52c.71 0 3.499-2.231 6.198-4.958 4.804-4.856 5.31-6.302 4.246-12.144-.061-.331-1.464-2.018-3.119-3.75C82.013 28.031 80 27.136 80 28.927m57.395 3.005c.058 1.579.443 2.664.855 2.411 1.026-.63.949-4.102-.105-4.753-.47-.291-.808.763-.75 2.342M175 30.14c0 .627-.68 1.639-1.512 2.25-1.921 1.41-6.53 14.466-5.362 15.188.481.297.874.031.874-.592 0-.622 1.186-.198 2.635.941S174.755 50 175.347 50s2.054 1.224 3.247 2.721c2.649 3.322 4.238 2.4 6.83-3.965.952-2.341 2.6-5.926 3.661-7.967 1.908-3.668 1.908-3.723-.012-4.75-3.465-1.854-5.759-1.212-7.082 1.982-1.734 4.187-3.085 4.734-1.846.748.559-1.798 1.258-4.057 1.553-5.019.301-.985.016-1.75-.653-1.75-.653 0-1.863-.675-2.688-1.5-1.781-1.781-3.357-1.95-3.357-.36M54.9 45.288c-1.98 1.766-4.564 4.836-5.743 6.82l-2.144 3.608 4.853 5.142C54.535 63.686 57.25 66 57.9 66c1.479 0 7.307-4.037 8.463-5.863.474-.749 1.712-2.212 2.75-3.25s1.88-2.675 1.872-3.637c-.013-1.496-.157-1.532-.985-.25-.823 1.274-.972 1.229-.985-.296-.016-1.931-7.858-10.718-9.515-10.662-.55.018-2.62 1.479-4.6 3.246m67.839-.864c-2.507 1.333-4.814 2.168-5.126 1.856-.571-.571-7.395 1.255-17.613 4.713-3.025 1.024-7.354 2.346-9.621 2.938-4.136 1.081-11.351 6.906-21.76 17.569-9.066 9.289-16.023 21.337-20.208 35-1.416 4.624-1.843 9.325-1.862 20.5-.014 7.975.273 15.625.638 17 .366 1.375.698 3.283.739 4.24s2.549 3.383 5.574 5.391 5.5 4.065 5.5 4.57c0 1.05-1.168.441-5.75-2.999-4.345-3.261-4.223-1.598.612 8.351 4.375 9.002 11.175 18.441 17.218 23.901 2.254 2.036 3.945 3.831 3.759 3.989s-2.814 1.074-5.839 2.035c-6.778 2.155-9.575 3.857-11.129 6.772-1.013 1.902-.98 2.078.215 1.136 2.86-2.252 4.618-1.266 4.513 2.531-.083 2.991.273 3.636 2.151 3.903 2.561.363 2.642.58 1.215 3.246-1.489 2.782-.272 2.429 6.959-2.018 3.533-2.173 6.865-3.679 7.404-3.345.54.333.68.119.312-.476-.64-1.035 2.944-2.871 4.684-2.4.454.122.569-.191.256-.697-1.363-2.207 2.545-1.653 9.943 1.408 18.402 7.614 39.555 8.574 57.284 2.599 5.119-1.726 9.716-3.137 10.216-3.137s3.717 1.815 7.149 4.032 7.291 4.297 8.578 4.62c1.915.481.332 1.555-8.735 5.928-6.09 2.937-12.635 5.633-14.544 5.991-3.08.578-3.471.411-3.471-1.481 0-1.304-.97-2.575-2.496-3.27-2.062-.94-2.844-.822-4.5.676-2.297 2.08-2.463 3.402-.865 6.909 2.209 4.849 9.547 6.571 16.548 3.885 1.288-.494 1.359-.245.429 1.493-.614 1.147-1.116 4.079-1.116 6.516 0 7.773 5.827 12.701 15.016 12.701 5.622 0 8.123-.976 12.172-4.75 2.095-1.953 3.688-2.486 7.214-2.415 2.489.05 4.769-.303 5.066-.784s1.9-.361 3.562.266c3.723 1.406 5.258.572 9.767-5.3 3.797-4.947 3.784-6.972-.059-8.814-1.506-.722-2.738-1.952-2.738-2.735s-1.149-2.174-2.552-3.094c-2.417-1.583-2.697-1.566-5.258.328-1.488 1.1-4.11 2.206-5.827 2.458-3.065.45-3.113.394-2.643-3.106.486-3.624-1.675-6.907-4.882-7.418-.736-.118-2.161-.684-3.166-1.258-1.689-.965-1.612-1.186 1-2.886 3.921-2.553 5.259-4.526 5.296-7.808.053-4.653-1.645-6.484-7.727-8.334-3.158-.961-5.876-1.829-6.04-1.931-.165-.101 2.476-2.824 5.867-6.051 23.264-22.137 31.317-53.983 21.488-84.969-7.088-22.344-27.024-43.001-49.117-50.895-4.366-1.56-8.622-3.412-9.457-4.115-3.186-2.684-10.666-5.346-15.083-5.367-2.983-.014-6.204.83-9.16 2.402m-41.66.159c.048 1.165.285 1.402.604.605.289-.722.253-1.585-.079-1.917s-.568.258-.525 1.312M158 44c1.97 1.273 4.287 1.273 3.5 0-.34-.55-1.604-.993-2.809-.985-1.781.013-1.91.197-.691.985m39.232 1c-.687 1.1-1.89 2-2.673 2s-1.687.788-2.008 1.75-1.507 2.875-2.635 4.25l-2.05 2.5 1.212-2.5 1.213-2.5-2.207 1.961c-1.284 1.14-2.011 2.709-1.739 3.751.258.985.06 1.539-.438 1.23-.499-.308-.907-.121-.907.415C185 59.332 195.569 67 197.603 67c.347 0 .418-1.109.159-2.465s-.026-2.614.517-2.795c.544-.181.225-1.093-.709-2.027-2.04-2.04-1.132-4.425 1.008-2.648.77.639 1.173 1.53.895 1.979-.903 1.461.99 1.786 2.279.392 1.013-1.098.835-1.743-.939-3.396l-2.19-2.04h2.188c1.204 0 2.527.02 2.939.045s.667 1.038.565 2.25c-.131 1.555-.034 1.681.328.429.283-.977 1.219-1.652 2.082-1.5s1.788-.399 2.058-1.224.154-1.187-.257-.805c-.766.711-3.76-2.547-6.842-7.445-2.062-3.277-2.797-3.401-4.452-.75m-110.773.067c-1.076 1.741.149 2.11 1.521.457.789-.95.865-1.524.201-1.524-.584 0-1.36.48-1.722 1.067M111 50.117c-2.475 1.628-6.975 3.642-10 4.476-15.138 4.171-18 6.489-18 14.581 0 4.294.471 5.408 3.788 8.965 3.138 3.363 4.438 4.061 7.567 4.061 4.654 0 5.299-.581 3.834-3.452C96.47 75.381 94.981 71 95.555 71c.278 0 1.889 1.575 3.579 3.5s3.942 3.5 5.005 3.5 3.077.751 4.477 1.668c3.711 2.432 13.145 1.903 16.134-.903 1.237-1.163 2.25-2.748 2.25-3.523s.563-1.21 1.25-.966c.688.243 1.165 1.631 1.062 3.083-.123 1.718.314 2.641 1.25 2.641.791 0 1.438-.9 1.438-2 0-1.308.667-2 1.927-2 2.456 0 6.073-4.548 6.073-7.635 0-4.95 1.914-2.101 2.2 3.275.252 4.742.648 5.768 2.486 6.444 1.585.583 2.923.225 4.865-1.303l2.68-2.108-.66 3.004c-.852 3.878 1.359 5.817 6.479 5.683 7.631-.2 13.95-6.456 13.95-13.81 0-6.899-7.272-10.246-15.464-7.117-2.408.92-4.919 2.324-5.58 3.12-2.025 2.44-2.821 1.616-1.764-1.828 1.419-4.623-1.798-9.872-7.843-12.798-5.85-2.832-12.34-2.227-21.619 2.016-7.586 3.468-18.654 6.328-22.616 5.844-2.366-.289-2.234-.443 1.386-1.621 5.288-1.72 13.385-5.727 16.5-8.165 3.819-2.989 1.074-2.223-4 1.116m-57 .069c0 .863.675 2.129 1.5 2.814 1.908 1.584 1.889.098-.032-2.441C54.293 49.005 54 48.931 54 50.186m4.711 2.472c-.335.542.718 2.151 2.34 3.574 3.524 3.092 3.894 1.978.609-1.84-1.286-1.496-2.613-2.276-2.949-1.734m-20.536 8.846c-1.22 1.552-2.496 3.985-2.835 5.408s-1.054 3.145-1.59 3.825c-1.508 1.917-.033 4.57 2.214 3.983 1.067-.279 2.074-.165 2.238.254S39.625 76.043 41 76.42c2.402.657 2.424.622.559-.868C40.491 74.698 40.154 74 40.81 74s2.924 1.784 5.041 3.965c3.795 3.911 3.863 3.935 4.936 1.75 2.384-4.857 2.76-8.153.952-8.35-.682-.074-1.765-.186-2.408-.25-.642-.063-2.185-2.365-3.428-5.115s-2.817-5-3.498-5-1.412-.521-1.624-1.158c-.215-.644-1.372.094-2.606 1.662m175.51-1.126c-.342.892-1.504 1.622-2.581 1.622s-2.873 1.163-3.991 2.584-2.427 2.34-2.91 2.042c-1.224-.757-5.365 2.303-4.661 3.442.317.513.084.932-.518.932-1.649 0 .287 3.12 4.943 7.966 3.967 4.128 6.666 4.564 5.714.921-.272-1.038-.086-1.887.413-1.887.498 0 .906-.723.906-1.607 0-1.028-.548-1.397-1.523-1.022-1.248.478-1.33.222-.45-1.422 1.342-2.507 2.973-1.624 2.973 1.61 0 1.343.477 2.441 1.059 2.441s.781-.45.441-1 .084-1 .941-1c1.97 0 1.975-.883.017-3.047-1.41-1.558-1.329-1.744.945-2.179 2.295-.439 2.448-.236 1.976 2.625-.415 2.512-.305 2.777.581 1.393.601-.94 1.71-1.472 2.465-1.182 2.565.984 2.618-1.461.091-4.187-1.384-1.493-2.526-3.437-2.538-4.319s-.843-2.671-1.846-3.976c-1.556-2.023-1.916-2.133-2.447-.75M70.225 78.975C66.837 83 62.265 89.94 60.065 94.397c-5.931 12.012-7.465 18.917-7.519 33.853-.028 7.78-.436 12.761-1.046 12.78-.55.017-.212.489.75 1.05s1.75 2.132 1.75 3.493c0 2.457-.018 2.462-2.75.717-2.496-1.594-2.626-1.599-1.41-.061.737.931 2.199 1.966 3.248 2.299s2.187 1.718 2.528 3.078 2.145 3.635 4.008 5.057c5.09 3.881 26.574 14.54 27.477 13.63.433-.436-3.967-3.248-9.778-6.25-6.537-3.376-12.519-7.345-15.694-10.411-5.334-5.154-4.22-4.933 5.14 1.018 2.899 1.842 5.529 3.35 5.846 3.35s1.771.825 3.231 1.834 4.679 2.634 7.154 3.61c2.475.977 5.063 1.999 5.75 2.273.688.273 1.25.016 1.25-.571 0-.588-5.392-3.818-11.982-7.178-7.967-4.061-12.708-7.129-14.15-9.154l-2.169-3.045 2.368 1.267c1.303.697 4.633 2.687 7.401 4.422 4.871 3.054 14.674 7.632 19.282 9.006 1.549.462 2.25.253 2.25-.672 0-.739-5.957-4.257-13.238-7.818-9.157-4.478-13.351-7.061-13.603-8.378-.319-1.663.373-1.491 5.488 1.367 3.219 1.799 6.528 3.846 7.353 4.549 1.746 1.489 8.857 3.935 14.265 4.907l3.764.677-2.011-3.298c-3.601-5.907-2.316-15.209 2.943-21.298 3.079-3.565 7.332-20.5 5.148-20.5-.61 0-1.109-.666-1.109-1.481 0-1.712-4.09-2.99-7.073-2.21-4.699 1.229.718-3.568 6.276-5.557.387-.139 1.007-2.164 1.378-4.502l.675-4.25h-4.432c-5.601 0-14.055-4.1-17.224-8.353-1.29-1.731-2.99-5.137-3.78-7.569l-1.434-4.421zm107.018-2.725c-2.96 10.74-8.128 14.741-19.045 14.746l-7.303.004.303 5.25c.277 4.816.49 5.224 2.576 4.933 2.195-.306 10.533 3.962 8.653 4.429-.51.127-3.042.515-5.627.863-3.317.446-4.87 1.17-5.28 2.461-.922 2.906 4.084 18.535 7.407 23.122 5.061 6.986 5.282 14.408.632 21.26l-2.388 3.518 3.165-1.063c1.74-.585 3.712-1.491 4.382-2.014s9.444-4.241 19.5-8.263l18.282-7.312.31-9.342c.171-5.138-.204-12.042-.834-15.342-2.479-12.997-10.982-29.295-19.696-37.75l-3.865-3.751zm-38.252 4.261c-1.029 1.239-.88 1.489.887 1.489 1.167 0 2.122-.423 2.122-.941 0-1.732-1.76-2.053-3.009-.548M113.767 84.3c-6.794 1.422-9.287 3.494-8.409 6.989 1.262 5.028 3.759 6.795 10.841 7.674 8.057.999 26.192 6.598 27.852 8.599 1.371 1.652 5.949 1.956 5.949.396 0-1.702-11.871-6.802-19.457-8.36A2210 2210 0 0 1 119 97.195l-4.5-.955 6.792-.12c5.658-.1 13.38.968 24.015 3.323 1.438.318 1.573.118.662-.981-.643-.774-.875-2.615-.529-4.19.872-3.968-.983-5.927-7.94-8.385-7.342-2.595-16.113-3.181-23.733-1.587M.392 128c0 7.425.157 10.463.35 6.75s.192-9.787 0-13.5c-.193-3.713-.35-.675-.35 6.75m107.685-10.411c-8.067 6.788 1.617 17.788 11.508 13.072 6.483-3.092 5.25-9.664-2.56-13.648-5.003-2.553-5.249-2.537-8.948.576m31.373-1.182c-2.972 1.294-8.45 6.878-8.45 8.614 0 2.426 4.777 6.139 8.55 6.646 8.557 1.147 13.885-8.323 7.995-14.212-2.783-2.784-3.805-2.917-8.095-1.048m-28.306 3.205c-1.042.73-2.126 2.211-2.409 3.293-1.044 3.991 4.792 8.407 7.533 5.7.677-.669 2.019-1.515 2.982-1.88 2.043-.773 2.287-3.666.5-5.918-1.716-2.163-6.313-2.801-8.606-1.195m26.025-.018c-2.975 2.084-2.344 7.556 1.061 9.187 2.431 1.165 3.06 1.064 5.75-.924 3.157-2.334 3.977-5.856 1.77-7.6-2.134-1.688-6.623-2.034-8.581-.663m5.91 2.989c.048 1.165.285 1.402.604.605.289-.722.253-1.585-.079-1.917s-.568.258-.525 1.312m-17.707 8.889c-.31.81.033 2.821.763 4.47 1.325 2.993 1.329 2.994 2.56.778 1.978-3.559 1.636-6.72-.726-6.72-1.118 0-2.286.662-2.597 1.472m72.078 20.411c-3.617 3.361-31.469 17.098-41.643 20.539-6.315 2.135-6.597 2.361-5 3.986s1.536 1.685-1.057 1.049c-2.394-.586-2.75-.378-2.75 1.609v2.283l-2.314-2.175c-1.377-1.293-3.606-2.174-5.5-2.174-1.853 0-4.023-.837-5.186-2-2.663-2.663-3-2.542-3 1.072 0 2.598.347 3.03 2.25 2.802 1.238-.148 6.075 1.219 10.75 3.038 4.675 1.82 12.483 4.61 17.351 6.202l8.852 2.893 3.759-2.977c5.941-4.705 15.244-15.192 18.729-21.11 5.589-9.493 8.421-18.44 4.759-15.037M61.662 165.036c3.467 6.282 12.493 17.206 17.628 21.332l3.789 3.046 12.152-4.007c10.728-3.537 12.233-4.31 12.846-6.604.659-2.462.547-2.556-2.126-1.789-3.832 1.099-2.923-1.369 1.121-3.044 1.61-.667 2.928-1.564 2.928-1.993 0-1.492-6.755-4.815-7.901-3.887-.611.494-.184-.111.949-1.346 1.911-2.083 2.131-2.118 3.055-.494 1.425 2.503 2.698 2.16 2.173-.585-.401-2.099-4.78-5.675-6.93-5.659-.465.004-2.615 3.829-4.777 8.5-2.938 6.347-4.418 8.494-5.853 8.494-2.979 0-17.464-7.167-25.054-12.396l-6.837-4.711zm54.902 4.671c-.542 1.425-.428 1.54.56.56.684-.679.991-1.486.683-1.793-.308-.308-.867.247-1.243 1.233m22.466 2.743c-.022 2.151.269 2.651 1.074 1.846.791-.791.799-1.626.03-2.95-.941-1.618-1.077-1.482-1.104 1.104m-16.392.05c-.316.825-.139 1.5.393 1.5.533 0 .969-.675.969-1.5s-.177-1.5-.393-1.5-.652.675-.969 1.5m-21.163.54c-.421.682.333.806 2.191.359 3.832-.92 4.194-1.399 1.06-1.399-1.435 0-2.897.468-3.251 1.04m9.729 5.004c-1.25 2.002-1.213 2.012 1.76.475 3.45-1.784 3.822-2.519 1.277-2.519-.968 0-2.334.92-3.037 2.044m11.296 2.901c-5.27 2.494-4.259 2.545 2 .101 2.75-1.074 4.325-1.962 3.5-1.973s-3.3.831-5.5 1.872m-8 6.061c-17.369 7.725-18.535 8.334-18.163 9.479.535 1.649 12.656 5.302 21.64 6.521 4.663.634 11.636.858 15.5.499 8.62-.802 22.966-4.464 21.844-5.577-1.395-1.384-18.567-11.999-23.321-14.416l-4.5-2.288zm23.563-4.686c.849.964 15.196 6.755 15.638 6.312.212-.212-2.672-1.616-6.408-3.12-9.1-3.664-9.886-3.936-9.23-3.192m46.525 19.05c.312.811.008 2.521-.675 3.802-1.129 2.118-1.091 2.204.423.956 1.838-1.517 2.217-4.668.675-5.621-.555-.343-.74.035-.423.863M76.702 217.045c.988 1.27.341 2.812-3.637 8.662-3.553 5.225-5.136 6.822-5.953 6.005-.611-.611-1.112-1.697-1.112-2.412s-.45-1.3-1-1.3c-1.639 0-1.136 2.567.855 4.369 1.594 1.443 1.708 2.227.81 5.591-.758 2.841-.724 4.614.124 6.476 1.794 3.937 3.491 3.216 2.788-1.186-.649-4.071.512-6.931 2.353-5.793.635.392 1.873 2.51 2.752 4.706 1.543 3.857 5.334 6.563 7.402 5.285 1.76-1.088.894-2.027-1.834-1.987-2.287.032-3.115-.719-4.916-4.461l-2.166-4.5 4.077-.589c5.838-.843 9.755-5.423 9.755-11.408 0-3.962-.29-4.538-2.573-5.111-1.454-.365-3.064-.155-3.7.481-1.542 1.542-2.776 1.419-2.15-.213.283-.737-.294-1.974-1.281-2.75-1.587-1.245-1.656-1.23-.594.135m105.048-.383c2.039.823 1.481 2.199-3 7.402-2.843 3.301-5.078 4.974-6.75 5.052-1.599.074-1.889.277-.805.563 1.408.371 1.608 1.329 1.181 5.634l-.515 5.187 2.052-4.32c2.486-5.234 4.556-4.717 3.796.95-.569 4.244.883 5.345 1.869 1.417.357-1.422-.048-3.784-.964-5.62-1.483-2.971-1.456-3.341.44-6.003 4.04-5.673 9.946-8.849 9.946-5.347 0 2.502-5.772 7.725-7.713 6.98-.918-.353-.459.481 1.022 1.853 3.051 2.829 3.329 5.127 1.227 10.158-3.931 9.408-19.536 7.143-19.536-2.836 0-1.664 1.008-3.831 2.455-5.277 1.35-1.35 2.057-2.455 1.572-2.455-1.699 0-5.027 5.296-5.027 8 0 6.577 8.407 11.393 15.946 9.134 2.171-.65 4.871-2.357 6-3.793 2.44-3.102 2.753-9.516.554-11.341-2.093-1.737-1.905-2.262 1.506-4.203 2.472-1.407 2.994-2.344 2.994-5.375 0-3.517-.122-3.648-2.895-3.093-2.311.462-2.999.184-3.407-1.375-.281-1.075-1.115-1.918-1.854-1.875-1.011.059-1.034.204-.094.583m-113.5 2.904c-2.338 1.401-4.25 2.784-4.25 3.072s1.486-.393 3.301-1.515 4.403-2.48 5.75-3.018 1.774-1.002.949-1.032-3.412 1.092-5.75 2.493m102.904 1.13c-3.902 2.033-6.948 3.844-6.768 4.023.179.18 3.866-1.484 8.193-3.696 4.326-2.213 7.372-4.023 6.768-4.023s-4.291 1.663-8.193 3.696m-58.764.554c-1.077 1.238-3.022 4.275-4.323 6.75-1.3 2.475-2.902 5.175-3.56 6-.73.916-.905 2.474-.451 4 .568 1.906.768 2.046.844.588.131-2.511 7.215-14.588 8.558-14.589.573 0 1.107-1.125 1.186-2.5.176-3.042.177-3.041-2.254-.249m-33.563 1.46C75.733 226.001 71 232.912 71 234.14c0 .473 1.715.86 3.811.86 4.222 0 7.186-2.16 9.739-7.097 3.444-6.66-.758-10.473-5.723-5.193M42 222.811c0 .447.918 1.797 2.039 3 2.12 2.276 9.036 3.062 11.754 1.338.72-.457-1.15-.618-4.216-.364-5.173.429-5.583.297-6.704-2.164-1.128-2.477-2.873-3.576-2.873-1.81m62.5.189c.34.55 1.604.968 2.809.93 2.112-.068 2.119-.101.191-.93-2.752-1.183-3.731-1.183-3 0m42.5.429c0 4.276 7.503 5.949 13.5 3.011 1.65-.809 2.1-1.184 1-.834s-4.093.86-6.652 1.133c-3.915.418-4.82.182-5.715-1.49-.584-1.092-.778-2.27-.431-2.618s.106-.631-.535-.631c-.642 0-1.167.643-1.167 1.429M60 224.5c-1.375.786-2.024 1.445-1.441 1.465.582.019 1.932-.626 3-1.433 2.469-1.868 1.68-1.884-1.559-.032m8 .559c0 .582.45.781 1 .441s1-.816 1-1.059-.45-.441-1-.441-1 .477-1 1.059m11.807 1.691c-2.342 2.727-3.02 4.25-1.892 4.25.569 0 1.732-1.35 2.585-3 1.754-3.392 1.516-3.822-.693-1.25m123.749.16c-.799 1.292.474 4.189 1.549 3.525.492-.304.895-1.003.895-1.553s-.45-.722-1-.382-1 .179-1-.358.563-1.202 1.25-1.48c.901-.363.918-.526.059-.583-.655-.043-1.444.33-1.753.831m-106.214 2.288c.316 1.209.031 2.896-.634 3.75-1.035 1.329-.98 1.374.384.311.876-.683 1.888-.946 2.25-.584 1.259 1.26.648 5.392-.885 5.98-1.997.766-3.299-.516-1.594-1.57 1.043-.645 1.009-.92-.173-1.374-.859-.33-2.462.54-3.834 2.081-1.296 1.456-1.554 2.032-.575 1.279 1.543-1.185 1.97-1.114 3.192.531 1.101 1.483 1.791 1.665 3.152.831 3.4-2.082 4.008-4.239 2.125-7.533-.963-1.684-1.75-3.701-1.75-4.481S98.498 227 97.883 227c-.657 0-.88.903-.541 2.198m-39.177.679c-1.014.643-.834.976.75 1.391 1.383.361 2.085.071 2.085-.862 0-1.595-.891-1.761-2.835-.529m30.422 1.809c-3.291 3.291-3.342 8.612-.087 9.093 1.828.269 1.85.201.25-.792-2.072-1.286-2.199-2.355-.5-4.208.688-.75 1.732-2.218 2.321-3.262 1.495-2.648 3.975-3.388 3.029-.903-.548 1.439-.44 1.61.454.723 1.343-1.333.457-3.337-1.477-3.337-.717 0-2.513 1.209-3.99 2.686m24.487-.38c-.483 1.269-2.127 3.856-3.653 5.75s-1.956 2.687-.953 1.763c1.715-1.582 1.927-1.552 3.586.496l1.763 2.177-.557-2.91c-.476-2.49-.298-2.81 1.234-2.223 1.449.556 1.568.421.626-.714-.82-.989-.869-2.175-.166-4.023q.995-2.62-.004-2.622c-.55 0-1.394 1.038-1.876 2.306m80.67-1.182c-2.082 1.164-4.762 6.055-4.7 8.576.029 1.162.701.559 1.896-1.701 2.053-3.88 5.755-7.637 6.647-6.745.724.724-1.19 4.479-3.947 7.746-1.161 1.375-1.48 1.953-.71 1.285 1.11-.963 1.625-.908 2.485.266.893 1.219 1.11 1.045 1.226-.977.077-1.352 1.089-3.791 2.25-5.42 1.16-1.63 2.109-3.162 2.109-3.406 0-.87-5.544-.583-7.256.376m-64.698 1.321c-1.987 2.394-.846 5.91 2.272 7.002 5.426 1.901 11.335-4.034 7.1-7.131-2.396-1.752-7.874-1.676-9.372.129m76.704 1.641c-1.921 3.377-2.266 6.477-.819 7.371.512.317 1.256.049 1.654-.595.452-.731.291-.903-.43-.457-1.68 1.038-1.422-1.579.415-4.201.863-1.233 1.426-2.905 1.25-3.717-.207-.956-.937-.392-2.07 1.599M131.5 234c-.351.567.49 1 1.941 1 1.407 0 2.559-.45 2.559-1s-.873-1-1.941-1-2.219.45-2.559 1m-14.332 3.531c-1.359 2.983-1.141 3.086 1.07.504.926-1.081 1.317-2.192.869-2.469s-1.321.608-1.939 1.965m91.704-.781c-1.243 1.586-1.208 1.621.378.378 1.666-1.307 2.195-2.128 1.372-2.128-.207 0-.995.787-1.75 1.75m-41.841.75c0 .55.436 1.675.969 2.5s.969 1.05.969.5-.436-1.675-.969-2.5-.969-1.05-.969-.5M79 240.833c0 1.501.494 1.851 2.041 1.446 2.343-.613 2.101-2.622-.374-3.102-1.104-.214-1.667.345-1.667 1.656"/><path fill="#1976D2" fill-opacity=".171" fill-rule="evenodd" d="M117.009 1.107c-42.367 3.99-78.496 27.057-99.973 63.831C8.703 79.206 2.764 98.154.82 116.674c-3.529 33.622 8.667 70.632 31.642 96.021 5.314 5.872 5.668 6.082 8.461 5.028l2.915-1.1-6.384-6.895C17.346 188.009 6 158.365 6 127.545 6 69.213 45.052 21.396 103 8.776c12.602-2.744 35.627-2.967 48.183-.466 10.503 2.092 27.86 7.676 35.056 11.279 7.323 3.666 20.361 12.539 25.917 17.638 8.612 7.904 20.248 22.472 14.094 17.645-1.584-1.242-1.62-1.207-.387.367.75.956 1.728 1.514 2.174 1.238.445-.275 1.665.742 2.711 2.261C234.071 63.566 237.182 69 236.624 69c-.297 0-1.704-1.987-3.127-4.415s-3.341-5.016-4.261-5.75c-1.151-.918-.968-.242.586 2.165 14.641 22.668 21.865 52.124 19.201 78.285-2.904 28.521-14.09 52.807-33.999 73.815-7.019 7.406-7.684 8.433-6.194 9.567.919.698 1.973 1.284 2.343 1.301 1.403.066 6.979-5.357 13.298-12.933 13.592-16.296 21.994-32.815 27.159-53.4 3.444-13.727 4.32-35.91 1.959-49.635-6.996-40.681-28.888-70.856-65.089-89.715-17.395-9.062-35.347-13.776-57.972-15.223L118.5 2.293l11.417-.146c6.279-.081 11.229-.309 11-.507-1.056-.914-16.268-1.252-23.908-.533m27.804 1.576c.721.289 1.584.253 1.916-.079s-.258-.568-1.312-.525c-1.165.048-1.402.285-.604.604m-32.051 1.024c1.244.239 3.044.23 4-.02s-.062-.446-2.262-.435-2.982.216-1.738.455m-7.012.955c.688.278 1.813.278 2.5 0 .688-.277.125-.504-1.25-.504s-1.937.227-1.25.504m-3.937 1.021c.721.289 1.584.253 1.916-.079s-.258-.568-1.312-.525c-1.165.048-1.402.285-.604.604m-5 1c.721.289 1.584.253 1.916-.079s-.258-.568-1.312-.525c-1.165.048-1.402.285-.604.604M71 16c-.901.582-1.025.975-.309.985.655.008 1.469-.435 1.809-.985.767-1.242.421-1.242-1.5 0m60 5.255c0 1.348-.282 5.148-.626 8.444l-.627 5.992 5.116.606c6.712.795 11.137-.719 11.137-3.811 0-1.63-.818-2.606-2.75-3.283l-2.75-.965 2.75-1.094c2.921-1.162 3.678-4.148 1.5-5.91-.687-.556-4.062-1.331-7.5-1.721-6.16-.699-6.25-.674-6.25 1.742m-24-.862c0 .216.698.661 1.552.989.89.341 1.291.173.941-.393-.587-.951-2.493-1.406-2.493-.596m25 3.525c0 2.155-.259 4.743-.576 5.75-.456 1.454-.381 1.523.368.332 1.327-2.111 2.205-10 1.113-10-.498 0-.905 1.763-.905 3.918m-34.75-.929c-1.787 1.09-3.25 2.465-3.25 3.055s-.376.842-.835.558c-1.276-.788.363 8.327 1.743 9.697.945.938 1.053.763.492-.799-.395-1.1-.388-1.704.016-1.342s.825 1.262.937 2c.414 2.732 1.847 3.842 4.956 3.838 3.963-.004 9.286-3.144 10.197-6.014 1.123-3.539-.39-8.745-3.178-10.939-3.273-2.574-6.916-2.592-11.078-.054M137 24c0 3.36 1.555 3.884 3.714 1.25.877-1.07 1.154-1.167.713-.25-.56 1.167-.441 1.242.539.337 1.378-1.272.47-3.724-1.035-2.794-.512.316-.931.098-.931-.484S139.325 21 138.5 21q-1.5 0-1.5 3m19.577.661c-.873 2.275-.663 3.024.384 1.368 1.877-2.968 1.782-.384-.178 4.843-1.442 3.847-2.261 4.983-2.883 4-.551-.869-.875-.943-.885-.204-.008.643-.27 1.834-.583 2.647-.766 1.997 9.18 5.473 10.858 3.795.813-.813.389-1.11-1.59-1.11-3.347 0-3.495-1.909-.7-9 1.1-2.791 2-5.238 2-5.439s-1.315-.824-2.923-1.384c-2.339-.816-3.039-.719-3.5.484m-57.193.78c-.743 1.936 2.65 11.751 4.243 12.274 2.083.684 2.292-2.595.5-7.866-1.853-5.452-3.688-7.157-4.743-4.408m4.773.059c-.003.55.602 2.575 1.343 4.5s1.362 2.825 1.379 2-.587-2.85-1.343-4.5c-.755-1.65-1.376-2.55-1.379-2m-9.962 5c.02 1.65.244 2.204.498 1.231s.237-2.323-.037-3-.481.119-.461 1.769m60.884-1.832c-.043.643-.338 1.993-.655 3-.547 1.741-.518 1.744.571.044.631-.983.925-2.333.655-3-.355-.875-.514-.887-.571-.044m-18.412.999c-1.309 1.309-.681 5.333.833 5.333q1.5 0 1.5-3c0-2.867-.9-3.767-2.333-2.333m-60.258 1.186c.318.514-.432 1.205-1.666 1.537s-3.303 1.431-4.598 2.441l-2.355 1.836 1.998 3.917c1.098 2.154 2.026 4.269 2.06 4.701.155 1.951 3.861 5.303 5.854 5.295 1.212-.005 2.017-.194 1.79-.421s1.021-1.378 2.772-2.558C88.895 43.132 89.633 36.903 84 32.95c-2.829-1.984-8.487-3.547-7.591-2.097M101.571 32c.359 1.375 1.053 2.928 1.541 3.45 1.428 1.527.99-.664-.689-3.45l-1.506-2.5zm38.459.55c.027 2.586.163 2.722 1.104 1.104.769-1.324.761-2.159-.03-2.95-.805-.805-1.096-.305-1.074 1.846m34.842 1.2c-1.243 1.586-1.208 1.621.378.378 2.507-1.967 2.198-.972-1.718 5.529-3.228 5.358-3.356 5.881-1.845 7.55.893.986 2.398 1.793 3.346 1.793.947 0 2.282.675 2.967 1.5 2.209 2.662 3.663 1.635 7.8-5.511l4.059-7.01-2.899-1.5c-2.844-1.47-2.928-1.437-4.489 1.761l-1.591 3.26 2.038-2.5c1.12-1.375 2.048-2.154 2.06-1.73.04 1.407-5.112 8.929-5.708 8.333-.322-.322-1.15-.118-1.839.454-2.924 2.427-2.364-1.411.988-6.77 2.622-4.191 3.231-5.891 2.318-6.47-2.044-1.299-4.409-.923-5.865.933M75 34.917c0 .596.477 1.083 1.059 1.083s.735.563.34 1.25c-.396.688-.351.916.099.509s1.529-.183 2.398.5c1.44 1.131 1.44 1.023.007-1.204C77.187 34.389 75 33.191 75 34.917M172 38c-.589 1.1-.845 2-.57 2s.981-.9 1.57-2 .845-2 .57-2-.981.9-1.57 2m-102-.059c0 .518.445 1.216.989 1.552.566.35.734-.051.393-.941C70.717 36.82 70 36.503 70 37.941m24 .468c0 .19.675.906 1.5 1.591.865.718 1.5.815 1.5.229 0-.558-.675-1.274-1.5-1.591s-1.5-.419-1.5-.229m-14.398 3.185c-.4 1.044-.05 2.386.861 3.298 1.383 1.382 1.535 1.339 1.522-.428-.009-1.08-.396-2.564-.861-3.298-.668-1.053-.988-.964-1.522.428m-20.789 1.089c.721.289 1.584.253 1.916-.079s-.258-.568-1.312-.525c-1.165.048-1.402.285-.604.604m64.133 2.001c-2.995 1.476-5.671 2.983-5.946 3.35s-1.525 1.207-2.778 1.866c-1.253.66-2.035 1.593-1.738 2.074.468.758-5.823 3.582-11.984 5.38-1.1.321.25.402 3 .182 2.767-.223 9.353-2.219 14.745-4.469 7.991-3.335 10.87-4.057 16-4.011 7.72.07 12.544 1.684 14.648 4.901 1.097 1.678 1.184 2.198.274 1.64-.983-.603-.918-.016.247 2.237 1.19 2.3 1.333 3.701.581 5.679l-.998 2.625 3.16-2.25c6.089-4.335 20.519-3.099 20.856 1.787.573 8.317.317 9.39-3.089 12.967-5.56 5.84-11.857 7.712-17.417 5.179-2.171-.989-2.487-1.634-1.965-4.011l.622-2.832-5.492 3.014c-6.347 3.483-10.203 3.266-6.776-.381 2.233-2.377 4.234-11.427 2.256-10.205-.633.392-1.152 1.303-1.152 2.026 0 1.745-8.546 9.568-10.453 9.568-1.144 0-1.357-.765-.902-3.25l.596-3.25-2.871 3.325c-2.527 2.928-3.616 3.392-9.114 3.888-6.927.625-13.645-1.275-16.789-4.749-3.052-3.373-3.609-2.15-.944 2.073 3.723 5.897 2.848 6.421-7.298 4.372-1.252-.253-4.051-2.064-6.222-4.025-5.076-4.586-5.912-8.54-3.134-14.821 2.222-5.023 5.69-7.183 15.464-9.632 2.837-.71 4.342-1.514 3.644-1.945-.692-.428.949-1.249 3.92-1.961 4.498-1.079 7.886-3.025 5.267-3.025-2.248 0-14.037 4.119-14.336 5.009-.28.834-2.679 1.358-8.598 1.879-2.201.194-21.34 18.259-26.033 24.571-5.46 7.344-11.459 19.807-13.672 28.404C45.348 120.202 45.304 144 48.457 144c.714 0 1.858.675 2.543 1.5s1.64 1.5 2.122 1.5c1.647 0 .882-2.087-1.718-4.687-2.063-2.063-2.217-2.498-.75-2.116 1.73.451 1.846-.404 1.853-13.608.007-15.761 1.468-21.99 8.149-34.737 3.753-7.16 14.961-21.207 16.274-20.395.44.272 1.065 2.122 1.387 4.112 1.251 7.704 10.121 14.985 19.629 16.111l5.152.61-.299 4.538c-.261 3.968-.636 4.627-2.98 5.25-1.475.392-3.725 1.466-5 2.387-2.135 1.542-2.16 1.66-.319 1.49 4.529-.42 6.23.188 8.278 2.958l2.153 2.913-2.583 8.837c-1.451 4.964-3.6 9.933-4.902 11.337-5.049 5.444-5.804 13.082-1.958 19.81 2.085 3.646 2.198 4.235.738 3.824-8.189-2.301-10.621-1.505-5.063 1.659 4.204 2.394 2.543 4.497-2.236 2.831-6.083-2.12-7.772-1.21-2.677 1.442 4.584 2.386 6.167 4.434 3.428 4.434-2.998 0-11.617-3.588-18.178-7.566-3.85-2.335-7.218-4.032-7.485-3.771-.828.809 4.086 4.04 14.235 9.359 9.164 4.802 10.529 5.866 9.213 7.182-1.265 1.265-13.685-4.232-21.213-9.389-3.043-2.084-4.25-2.499-4.25-1.46 0 3.004 24.276 16.521 27.47 15.295 1.816-.697 9.748-16.488 8.94-17.796-.32-.518 1.708.468 4.507 2.19 3.487 2.145 5.267 3.969 5.655 5.794.312 1.464.985 3.696 1.497 4.959 1.246 3.075 1.211 3.203-.878 3.203-.995 0-2.682.682-3.75 1.515-1.833 1.431-1.779 1.479.973.851 2.44-.557 2.812-.396 2.282.984-.348.908-.381 1.65-.072 1.65.852 0 5.867-4.089 5.937-4.841.3-3.26 5.439-11.08 5.439-8.277 0 .55-.45 1.278-1 1.618s-1 1.491-1 2.559-.375 1.941-.833 1.941-.748 1.013-.645 2.25c.191 2.292.953 2.454 5.478 1.166 4.455-1.268 1.703.319-7.795 4.496-5.112 2.249-10.328 4.088-11.59 4.088s-6.268 1.377-11.123 3.059l-8.829 3.059-7.695-7.649c-4.404-4.379-9.651-10.94-12.271-15.344-4.799-8.067-13.671-16.819-12.176-12.011 2.979 9.585 12.45 23.919 21.028 31.825 2.649 2.442 4.282 4.617 3.628 4.835s-.961.766-.682 1.218-.463.568-1.65.257c-1.619-.423-1.953-.232-1.337.763.593.961.368 1.154-.816.7-1.926-.739-7.567.966-9.656 2.919-1.276 1.193-1.227 1.369.385 1.369 1.017 0 2.892 1.125 4.167 2.5 1.962 2.118 2.056 2.502.614 2.515-1.464.013-1.493.151-.202.985.901.582 1.025.975.309.985-.655.008-1.474-.442-1.819-1.001-.346-.559-1.054-.753-1.575-.431-1.565.967.034 2.447 2.644 2.447 2.868 0 3.02.728.811 3.882-1.594 2.275-1.58 2.301.606 1.131 1.23-.659 7.357-4.308 13.615-8.111 6.259-3.802 13.389-7.89 15.845-9.083s4.189-2.617 3.851-3.164c-.368-.594.076-.73 1.101-.336 1.049.402 1.471.261 1.085-.363-.552-.893 18.218-10.494 24.117-12.337 2.639-.824 4.844-4.85 4.137-7.553-.851-3.257.23-2.412 1.837 1.434 1.905 4.559 5.218 4.84 6.083.516.328-1.641 1.028-2.717 1.556-2.391.527.326.68 1.707.338 3.067-.487 1.942-.182 2.589 1.419 3.008 1.122.293 2.04.883 2.04 1.31s.704 1.046 1.565 1.377c1.176.451 1.419.137.976-1.259-.5-1.574-.164-1.786 2.184-1.379 2.555.444 2.63.37.948-.927-1.675-1.291-1.361-1.555 3.763-3.17 17.83-5.621 39.961-18.321 41.216-23.652.323-1.375 1.265-3.041 2.093-3.702.913-.728 1.238-1.899.827-2.972-.427-1.111-.939-1.371-1.376-.699-.383.589-1.371 1.075-2.196 1.08-1.862.012-24.696 9.047-27.489 10.878-1.124.736-4.001 2.029-6.393 2.874l-4.35 1.534 2.529-3.315c5.479-7.184 5.533-16.162.135-22.576-1.383-1.644-3.563-6.502-4.845-10.795s-2.648-8.56-3.036-9.48c-1.181-2.8 2.789-5.822 7.699-5.86l4.25-.034-2.361-1.966c-1.325-1.105-3.847-1.967-5.75-1.967H151V90.038l4.424.607c11.795 1.616 19.956-4.856 22.062-17.5l.725-4.354 4.477 4.354c2.462 2.395 5.874 6.155 7.582 8.355l3.105 4-3.353-3-3.354-3 2.593 3.5c3.89 5.251 10.479 19.646 12.358 27 .984 3.849 1.707 10.863 1.771 17.198.096 9.291.34 10.757 1.86 11.156 2.832.742 2.03 4.566-1.75 8.346-1.925 1.925-3.5 4.084-3.5 4.798s-1.998 5.282-4.441 10.15c-5.135 10.236-12.974 20.166-20.374 25.809l-5.176 3.947 2.746 1.264c2.646 1.219 2.604 1.242-1.15.66-2.47-.384-3.669-.241-3.28.389 1.035 1.675-3.151.364-17.825-5.581-8.898-3.605-14-6.198-14-7.113 0-.823-1.395-1.726-3.25-2.106-1.787-.365-3.25-.271-3.25.209 0 .481-.751.874-1.669.874-.919 0 .484 1.091 3.117 2.424s5.522 2.19 6.42 1.905c1.203-.382 1.295-.275.348.407-.926.666 1.377 2.579 8.239 6.844 5.239 3.256 9.529 6.245 9.535 6.641.005.397-3.252 1.747-7.24 3-6.183 1.944-9.384 2.274-21.75 2.245-13.57-.032-15.075-.233-23.463-3.132-7.11-2.457-9.436-2.882-11.25-2.055-1.258.573-2.287 1.369-2.287 1.769s2.813 1.9 6.25 3.333c19.228 8.016 38.527 8.566 58.575 1.669l8.326-2.864 5.523 2.905c3.037 1.598 5.892 2.677 6.344 2.398.452-.28 1.71.621 2.796 2.001 2.799 3.56 7.461 3.388 11.263-.413 5.576-5.576 3.137-11.072-6.057-13.652l-5.93-1.663 6.788-6.631c16.66-16.275 25.12-36.207 25.098-59.131-.016-16.143-3.344-28.621-11.121-41.699-7.382-12.413-22.6-25.597-31.118-26.959-2.3-.368-3.407-.928-2.698-1.366 1.052-.65-8.471-4.976-10.954-4.976-.462 0-1.405-.68-2.095-1.512-2.721-3.279-10.311-5.82-17.64-5.905-3.932-.046-6.632-.414-6-.818.633-.404 2.136-.741 3.341-.75 1.205-.008 2.469-.465 2.809-1.015 1.225-1.981-5.193-.958-10.554 1.684m56.513-1.617c-.363.586-.445 1.281-.183 1.543s.743-.218 1.069-1.067c.676-1.762.1-2.072-.886-.476M54.881 45.503c-1.44.783-3.412 3.127-4.382 5.21s-1.909 4.047-2.085 4.366c-.738 1.333 5.835 7.817 8.522 8.407 6.473 1.422 13.399-5.96 11.362-12.11-1.004-3.032-6.484-7.404-9.196-7.336-.881.022-2.78.68-4.221 1.463m138.341 4.542c-3.147 3.408-5.751 6.93-5.786 7.826-.077 1.942 2.513 5.278 3.584 4.616.415-.256 1.309.205 1.989 1.024s2.193 1.487 3.363 1.484c1.996-.005 1.96-.144-.59-2.25l-2.718-2.245 1.989-2.386c1.856-2.228 2.109-2.277 3.799-.748 2.222 2.011 3.704.908 1.727-1.285-1.236-1.37-1.228-1.848.062-3.581 1.479-1.987 1.501-1.985 3.352.271 1.024 1.25 2.102 1.884 2.396 1.409.293-.475-1.007-2.356-2.889-4.18s-3.207-3.665-2.945-4.089c.263-.425.008-1.063-.566-1.418s-3.619 2.143-6.767 5.552m.278.955c-2.148 2.2-3.456 4-2.906 4s2.758-1.8 4.906-4 3.456-4 2.906-4-2.758 1.8-4.906 4M61 51.5c1.866 1.925 3.617 3.5 3.892 3.5S63.866 53.425 62 51.5 58.383 48 58.108 48s1.026 1.575 2.892 3.5m-7-.956C54 52.42 61.12 60 62.882 60c.615 0 1.118-.816 1.118-1.813 0-2.178-5.318-7.536-6.403-6.451-.42.42-.614.116-.43-.677.183-.792-.455-1.612-1.417-1.823-1.128-.247-1.75.219-1.75 1.308m5.441 5.988c1.068.807 2.391 1.468 2.941 1.468s.127-.661-.941-1.468c-1.067-.808-2.391-1.468-2.941-1.468s-.126.66.941 1.468M53 59.5c1.292 1.375 2.574 2.5 2.849 2.5s-.557-1.125-1.849-2.5-2.574-2.5-2.849-2.5.557 1.125 1.849 2.5M154 58c0 .55.45 1 1 1s1-.45 1-1-.45-1-1-1-1 .45-1 1m34 1.378c0 .207.787.995 1.75 1.75 1.586 1.243 1.621 1.208.378-.378-1.307-1.666-2.128-2.195-2.128-1.372m-148.651 2.09c.31.807.064 1.777-.547 2.154-.72.445-.826.226-.302-.622s.418-1.067-.302-.622c-.611.377-.829 1.42-.484 2.318.463 1.209.258 1.418-.794.808-.781-.454-1.088-.458-.683-.011.405.448-.189 2.312-1.321 4.142-2.274 3.681-1.91 5.438.972 4.684 1.038-.271 2.189-.004 2.558.594.37.598 1.181 1.087 1.804 1.087s.259-.661-.809-1.468c-3.97-3.003.806-1.479 5.156 1.645 4.3 3.088 4.465 3.123 5.882 1.25 2.307-3.05 1.865-3.916-3.979-7.796-5.669-3.764-6.618-5.265-3.971-6.281 1.322-.507 1.288-.77-.25-1.936-2.354-1.787-3.627-1.763-2.93.054m167.957 3.929c-3.956 2.806-7.403 5.597-7.659 6.2s.655 2.403 2.026 4l2.492 2.903-2.138-3.5-2.137-3.5 2.305 2.889c1.268 1.589 3.054 3.839 3.969 5s2 1.776 2.41 1.367-.109-1.689-1.155-2.845c-1.876-2.074-1.87-2.128.469-4.021 1.86-1.507 2.676-1.667 3.787-.745.779.647 1.146 1.891.816 2.765-.499 1.326-.307 1.301 1.162-.153 1.376-1.361 1.497-2.007.554-2.95-1.695-1.695-1.511-2.574.797-3.809 1.682-.9 2.179-.691 3.085 1.298.594 1.304 1.697 2.371 2.452 2.371 1.514 0 1.23-.662-2.306-5.374-1.323-1.764-2.148-3.625-1.832-4.136s.017-1.365-.664-1.897c-.87-.679-3.381.553-8.433 4.137m3.555-.338-2.361 2.06 2.75-1.675c1.512-.921 2.75-1.847 2.75-2.059 0-.781-.835-.335-3.139 1.674m-167.746-.151c-1.092.692-.881 1.146 1 2.148 2.091 1.115 2.232 1.086 1.144-.234-.683-.828-.946-1.802-.584-2.164.926-.926.083-.791-1.56.25m13.618.216c.679.684 1.486.991 1.793.683.308-.308-.247-.867-1.233-1.243-1.425-.542-1.54-.428-.56.56M36 72.059c0 .582.45.781 1 .441s1-.816 1-1.059S37.55 71 37 71s-1 .477-1 1.059m75.696 12.114c-5.781 1.279-8.205 4.231-7.208 8.774.987 4.491 4.449 6.664 11.706 7.347 3.468.326 10.806 2.247 16.306 4.269 10.909 4.01 17.5 5.338 17.5 3.527 0-2.736-10.393-7.08-24.5-10.239l-8-1.792 7 .558c3.85.307 10.488 1.362 14.75 2.343l7.75 1.785v-3.807c0-6.562-1.283-8.382-7.659-10.868-6.797-2.649-20.113-3.563-27.645-1.897M106 101.559c0 .857.457 1.276 1.016.931.559-.346.758-1.047.441-1.559-.857-1.387-1.457-1.129-1.457.628m8.187 8.176c-4.865.436-5.432 2.895-.592 2.569 8.808-.592 14.496-1.632 13.251-2.42-1.339-.849-4.428-.885-12.659-.149M139.5 112c2.731 1.174 3.5 1.174 3.5 0 0-.55-1.238-.968-2.75-.93-2.437.063-2.522.168-.75.93m-32.045 5.455c-5.884 5.883-1.213 14.545 7.844 14.545 7.803 0 11.312-7.19 5.951-12.191-5.821-5.429-10.006-6.144-13.795-2.354m30.562-.604c-7.55 4.049-9.006 10.552-3.052 13.631 6.725 3.477 14.367.518 15.625-6.05.459-2.399.003-3.762-2.09-6.25-3.071-3.649-5.569-3.966-10.483-1.331m-28.042 4.714c-1.5 3.947-1.186 5.382 1.44 6.578 1.831.834 3.156.772 5.484-.258 3.852-1.705 4.573-3.516 2.601-6.526-2.276-3.473-8.174-3.346-9.525.206m27.354-1.79c-2.122 1.351-2.61 5.801-.83 7.581 1.723 1.723 6.501 2.282 6.501.761 0-.486.9-1.119 2-1.407 2.51-.656 2.6-3.857.171-6.055-1.904-1.724-5.824-2.163-7.842-.88M111 122.5c0 .825.45 1.5 1 1.5s1-.675 1-1.5-.45-1.5-1-1.5-1 .675-1 1.5m31.638 0c.317.825.753 1.5.969 1.5s.393-.675.393-1.5-.436-1.5-.969-1.5-.709.675-.393 1.5m-17.898 8.49-2.529 1.989 2.634 2.875 2.634 2.875 2.546-2.615c2.542-2.61 2.543-2.617.586-4.864-2.391-2.746-2.694-2.759-5.871-.26m-76.309 16.593c.403 1.602.807 2.947.9 2.989s1.631 1.086 3.419 2.32c5.389 3.721 4.035-1.293-1.487-5.505L47.7 144.67zM71 146.969c1.375 1.058 3.4 2.148 4.5 2.423 1.508.376 1.261-.102-1-1.942-1.65-1.342-3.675-2.432-4.5-2.423-.996.012-.66.664 1 1.942m-5 2.954c0 1.227 10.181 7.23 10.953 6.458.291-.292-.141-.932-.961-1.421-.821-.49-3.404-2.056-5.742-3.482-2.338-1.425-4.25-2.125-4.25-1.555m38 15.955c0 1.008 2.892 3.605 3.357 3.015.171-.216-.515-1.18-1.524-2.143s-1.833-1.355-1.833-.872M122.232 172c-1.042 1.668-.999 2 .26 2 .841 0 1.508-.884 1.508-2 0-1.1-.117-2-.259-2s-.822.9-1.509 2M117 184.5c-1.375.786-2.05 1.429-1.5 1.429s2.125-.643 3.5-1.429 2.05-1.429 1.5-1.429-2.125.643-3.5 1.429m31 .5c.825.533 2.175.969 3 .969 1.333 0 1.333-.107 0-.969-.825-.533-2.175-.969-3-.969-1.333 0-1.333.107 0 .969m-9 .451c0 .248 2.813 1.98 6.25 3.849 3.438 1.869 11.368 6.186 17.623 9.593s11.535 6.033 11.733 5.834c.34-.339-24.378-14.648-31.306-18.122-3.313-1.661-4.3-1.926-4.3-1.154M109 188c-1.925 1.054-3.05 1.916-2.5 1.916s2.575-.862 4.5-1.916 3.05-1.916 2.5-1.916-2.575.862-4.5 1.916m-26.5 3c-1.63.701-1.688.872-.309.93.93.038 1.969-.38 2.309-.93.711-1.15.676-1.15-2 0m100.832 10.162c.311 1.189.123 2.989-.419 4-.76 1.421-.628 1.838.584 1.838 2.039 0 3.537-3.984 2.35-6.25-1.309-2.497-3.195-2.189-2.515.412M179 214.001c-1.375.394-6.81 2.805-12.077 5.358S156.593 224 155.673 224s-1.673.477-1.673 1.059-.45.781-1 .441-1.004-1.604-1.008-2.809c-.01-2.908-4.21-4.984-6.579-3.251-1.894 1.385-2.221 6.152-.538 7.835.833.833 1.125.327 1.125-1.953 0-1.692.675-3.637 1.5-4.322 1.277-1.06 1.5-.796 1.5 1.771 0 5.874 5.886 5.07 22.882-3.127 10.285-4.96 13.428-7.452 7.118-5.643m-111.015 2.517c-5.603 3.146-13.903 7.175-16.298 7.911-.998.306-1.522 1.028-1.166 1.605 1.048 1.696 5.177-.001 20.479-8.415 5.072-2.788 5.947-3.579 3.985-3.596-1.384-.013-4.534 1.11-7 2.495m42.712 1.505c-1.033 1.474-2.333 1.949-4.796 1.75-2.688-.217-3.583.187-4.377 1.977-.549 1.238-1.74 2.25-2.647 2.25s-2.912.656-4.457 1.457c-2.339 1.214-2.525 1.565-1.114 2.107 1.975.758 2.26 4.732.444 6.206-.687.558-2.15 1.18-3.25 1.383-2.32.426-3.455 4.847-1.244 4.847 2.945 0 8.351-7.975 7.287-10.748-.56-1.46.894-3.2 2.707-3.237.412-.008.764 1.223.782 2.735.036 3.13 2.364 6.742 3.781 5.866 1.616-.999 2.177-4.697.665-4.39-.741.151-1.376-.064-1.412-.476-.245-2.801.191-3.356 2.598-3.306 1.466.031 2.853-.506 3.084-1.194.279-.832-.684-1.25-2.879-1.25-3.086 0-3.19-.108-1.62-1.677 1.434-1.435 2.08-1.494 4.464-.411 1.533.696 2.469.945 2.08.553-.854-.86 3.376-4.479 4.455-3.812.416.258.29 1.341-.28 2.408-.776 1.448-.713 1.955.247 2.002.707.035.31.457-.881.937-2.043.824-9.334 12.396-9.334 14.815 0 2.273 2.992-.128 6-4.815 1.702-2.652 3.849-5.112 4.771-5.466 1.962-.752 4.213 1.84 4.261 4.907.031 2.025.056 2.027 1.5.118 1.132-1.498 1.468-1.593 1.468-.417 0 1.809-7.229 7.858-9.392 7.858-.83 0-1.944-.778-2.476-1.729-.911-1.628-1.088-1.62-3.013.121-2.332 2.11-5.119 1.521-5.119-1.083 0-1.471-.251-1.396-1.557.468-1.639 2.341-4.368 2.898-6.035 1.231-.655-.655-2.052-.591-4.12.189-2.479.936-3.455.909-4.708-.13-2.457-2.039-1.88-4.967 1.68-8.527 3.066-3.066 3.209-3.521 2.412-7.65-.947-4.897-1.966-6.444-3.588-5.442-.786.486-.784 1.243.005 2.718C90.072 226.74 83.978 236 77.327 236c-3.124 0-3.396.22-2.786 2.25 1.976 6.58 3.238 7.72 7.334 6.619 1.999-.537 2.594 2.014.644 2.762-2.862 1.098-6.406-1.413-8.61-6.101-2.895-6.16-4.262-5.802-3.701.97.495 5.966.051 6.549-2.683 3.528-1.382-1.527-1.676-3.101-1.305-6.967.413-4.296.152-5.302-1.866-7.198-2.817-2.646-4.02-1.939-2.216 1.301.719 1.291 1.162 4.455.991 7.072-.272 4.145.066 5.112 2.703 7.75 3.313 3.312 5.305 3.759 7.102 1.593 1.014-1.222 1.58-1.191 4.042.222 3.983 2.286 8.398.753 8.84-3.069.348-3.003-.505-2.813 14.184-3.162 4.125-.097 7.95-.34 8.5-.538s2.241-.012 3.757.414c3.141.882 5.439-.322 10.493-5.498 3.81-3.901 4.152-6.654.979-7.861-3.302-1.255-4.943-4.823-5.66-12.306-.038-.395-.744-.459-1.569-.143s-1.5.078-1.5-.531c0-1.838-2.791-1.244-4.303.916M79 218.441c0 .857.45 1.559 1 1.559s1-.423 1-.941-.45-1.219-1-1.559-1 .084-1 .941M185 218c0 .55.477 1 1.059 1s.781-.45.441-1-.816-1-1.059-1-.441.45-.441 1m5.732-.399c-.349.349-.379 1.914-.066 3.477.452 2.264-.052 3.462-2.484 5.894-2.888 2.888-2.974 3.197-1.61 5.79 2.904 5.514-1.584 13.587-8.247 14.837-8.324 1.561-15.325-2.605-15.325-9.119 0-1.986.451-4.455 1.003-5.485.572-1.069.621-2.11.113-2.423-1.544-.955-3.343 2.263-3.868 6.917-.471 4.179-.235 4.76 3.423 8.417 6.369 6.369 15.23 6.754 21.843.948 2.705-2.375 4.53-3.095 8.27-3.263 2.64-.119 5.363-.564 6.052-.99.688-.425 1.901-.234 2.695.425 2.417 2.006 6.212.209 9.427-4.465 3.561-5.175 4.101-9.032 1.132-8.09-1.524.484-2.148-.118-3.094-2.984-.652-1.975-1.703-3.418-2.336-3.207-1.558.519-1.493 3.848.114 5.844 1.098 1.364.961 2.21-.857 5.292-1.191 2.018-1.94 3.894-1.665 4.169.559.56 5.304-4.801 6.015-6.798.253-.708.749-1.021 1.103-.697 1.002.919-5.194 8.91-6.908 8.91-2.336 0-2.776-2.491-1.034-5.86 2.708-5.237 1.717-5.579-1.678-.578-3.94 5.803-6.413 7.57-7.702 5.502-.731-1.171-1.178-1.201-2.428-.164-1.916 1.59-3.62.623-3.62-2.055 0-2.086 2.956-7.845 4.027-7.845.327 0 .495-2.525.373-5.612-.213-5.363-1.308-8.147-2.668-6.787m-124.171 4.435c-9.663 5.647-15.629 7.484-19.698 6.066-3.802-1.325-4.54-.922-2.339 1.279.89.89 3.187 1.619 5.105 1.619 4.097 0 12.459-1.897 13.821-3.136 1.556-1.415 2.298-1.005 2.961 1.636.345 1.375 1.02 2.5 1.501 2.5 1.718 0 2.108-3.32.587-5.001-1.385-1.531-1.388-1.846-.03-2.974.836-.693 2.402-1.03 3.48-.749 1.321.346 2.463-.255 3.505-1.846.85-1.298 1.546-2.6 1.546-2.895 0-1.532-4.285-.095-10.439 3.501m102.436 1.021c-9.513 4.582-11.03 5.022-16.18 4.691-5.227-.337-5.605-.221-4.715 1.443 1.15 2.148 7.695 2.473 12.944.643 2.182-.76 3.46-.816 3.679-.158.222.666 1.526.637 3.854-.085 2.621-.813 3.401-1.54 3.059-2.854-.54-2.08 2.549-4.15 4.011-2.688.607.607 2.193-.322 4.349-2.547 2.886-2.978 3.102-3.502 1.445-3.502-1.072 0-6.673 2.276-12.446 5.057m-128.986-2.57c-1.351 1.628-.595 6.513 1.008 6.513.54 0 .981-1.26.981-2.8s.54-3.34 1.2-4c.933-.933.849-1.2-.378-1.2-.867 0-2.132.669-2.811 1.487m4.609.319c-.667 1.08 1.579 5.437 3.054 5.923.888.293.908-.482.082-3.171-1.062-3.463-2.122-4.393-3.136-2.752m35.603.991c-2.651 2.04-8.212 10.129-8.219 11.953-.005 1.552 3.397 1.623 6.312.133 2.599-1.329 5.631-4.881 5.662-6.633.04-2.237-1.605-1.325-4.208 2.333-1.402 1.971-2.803 3.173-3.112 2.672-.895-1.447 4.468-8.255 6.502-8.255 1.173 0 1.84-.725 1.84-2 0-2.452-1.758-2.527-4.777-.203m104.055-.025c-1.221.951-3.334 3.244-4.694 5.097-2.288 3.117-2.36 3.544-.956 5.686 1.702 2.598 1.505 7.583-.324 8.183-.814.267-1.133-.889-1-3.628.268-5.493-1.321-5.56-3.13-.133-1.41 4.231-1.549 4.35-2.522 2.169-.727-1.628-.685-3.22.142-5.411 1.461-3.871 1.031-4.319-2.676-2.784-3.927 1.627-5.781 6.035-4.172 9.919 1.391 3.358 4.735 5.13 9.678 5.13 8.17 0 12.857-11.236 6.626-15.885l-2.75-2.052 2.576-.031c2.872-.036 6.924-3.75 6.924-6.346 0-2.122-.91-2.101-3.722.086M201 224.5c-.685.825-2.315 1.5-3.622 1.5-1.308 0-2.378.45-2.378 1s1.275 1 2.833 1c3.912 0 4.408.846 2.279 3.887-1.006 1.437-2.358 3.625-3.005 4.863-2.033 3.885.662 2.552 3.914-1.937 2.637-3.642 2.846-4.375 1.595-5.625-1.25-1.25-1.09-1.743 1.223-3.781 2.53-2.229 2.557-2.345.533-2.375-1.17-.018-2.687.643-3.372 1.468m-109.494 7.494c-.999 1.103-1.351 2.006-.783 2.006 1.258 0 3.752-2.858 3.08-3.53-.265-.265-1.299.42-2.297 1.524m24.094-.595c.295.769.048 1.7-.548 2.069-1.382.854-.384 2.532 1.507 2.532.934 0 1.441-1.055 1.441-3 0-1.972-.503-3-1.469-3-.847 0-1.241.592-.931 1.399m13.847.66c-1.423 1.572-1.613 2.458-.804 3.75 1.302 2.079 6.954 2.771 8.971 1.097 1.726-1.433 1.419-5.524-.388-5.156-.674.137-1.226-.2-1.226-.75 0-1.799-4.646-1.049-6.553 1.059m63.921 1.961c-1.463 2.212-2.333 4.348-1.933 4.749.785.785 2.846-1.616 5.167-6.019 2.237-4.244-.224-3.278-3.234 1.27m-137.192-2.15c-.984.624-.476 1.377 1.974 2.928 3.919 2.481 4.313 2.312 2.727-1.169-1.246-2.733-2.452-3.185-4.701-1.759m40.506 2.517c-.373.971.042 1.237 1.382.886 1.052-.275 1.667-.899 1.366-1.387-.814-1.316-2.144-1.074-2.748.501M131.5 234c-.362.585.676 1 2.5 1s2.862-.415 2.5-1c-.34-.55-1.465-1-2.5-1s-2.16.45-2.5 1m36.059 2.314c-.945 2.085.805 6.686 2.542 6.686.8 0 .833-.376.11-1.25-.569-.687-1.213-2.6-1.432-4.25-.331-2.49-.538-2.692-1.22-1.186M113 237.319c0 1.866 1.631 3.087 2.42 1.811.307-.497-.112-1.459-.931-2.139-1.211-1.005-1.489-.944-1.489.328M96 238c0 .55.675 1 1.5 1s1.5-.45 1.5-1-.675-1-1.5-1-1.5.45-1.5 1m-16.25.689c-1.931.505-2.125 1.171-.905 3.095 1.133 1.785 4.155.41 4.155-1.891 0-1.931-.193-2.003-3.25-1.204m9.5 6.973c-.687.278-1.25 1.293-1.25 2.257 0 3.854 29.849 8.758 46.5 7.639 8.842-.594 27.588-3.904 29.825-5.267.454-.276-.142-1.404-1.325-2.506-2.133-1.987-2.227-1.988-11.326-.144-13.401 2.716-37.773 2.492-50.627-.466-10.035-2.309-9.875-2.288-11.797-1.513"/><path fill="#1976D2" fill-opacity=".711" fill-rule="evenodd" d="M108.813 2.683c.721.289 1.584.253 1.916-.079s-.258-.568-1.312-.525c-1.165.048-1.402.285-.604.604m-10 2c.721.289 1.584.253 1.916-.079s-.258-.568-1.312-.525c-1.165.048-1.402.285-.604.604M106 6.016c-26.264 4.64-48.452 16.453-67.204 35.779-5.337 5.501-12 13.519-14.806 17.817C.596 95.449-3.154 139.572 13.861 178.803 20.496 194.101 36.911 217 41.242 217c1.53 0 .81-1.288-3.494-6.25-16.206-18.682-25.045-36.106-29.837-58.816C5.07 138.466 4.8 113.547 7.371 102c5.736-25.761 16.753-45.309 35.707-63.353 16.01-15.241 32.743-24.15 55.181-29.381 9.723-2.267 13.57-2.631 28.488-2.693 9.486-.04 17.249-.346 17.25-.681.004-.89-11.133-1.904-19.894-1.811-4.182.044-12.328.915-18.103 1.935M86 8c-1.828 1.181-.249 1.181 2.5 0 1.319-.567 1.489-.878.5-.914-.825-.031-2.175.381-3 .914m-13.999 6.047C14.518 42.158-13.042 108.402 7.406 169.314 9.932 176.841 17.517 193 18.524 193c.276 0-1.028-3.038-2.896-6.75-4.483-8.905-8.959-21.744-11.243-32.25-2.598-11.947-2.598-39.053 0-51 8.549-39.316 33.202-70.93 69.089-88.597C79.509 11.431 83.969 9 83.385 9s-5.707 2.271-11.384 5.047m24.738 9.944c-2.357 1.853-2.46 2.284-1.497 6.25.569 2.342 1.422 4.686 1.896 5.209s.847 1.422.829 2c-.019.577-.919-.012-2-1.311C94.885 34.841 94 34.209 94 34.734c0 2.158 4.125 4.526 8.064 4.629 3.479.091 4.591-.412 7.092-3.211 2.459-2.753 2.852-3.861 2.297-6.486-1.522-7.204-9.07-10.115-14.714-5.675m2.563.663c-.791 2.064 1.347 10.382 3.135 12.194 1.028 1.042 1.809 1.091 3.446.214 2.538-1.357 2.596-2.299.523-8.383-1.677-4.922-4.098-7.783-3.008-3.554l.613 2.375-1.159-2.25c-1.371-2.664-2.672-2.882-3.55-.596m-6.223 6.929c.048 1.165.285 1.402.604.605.289-.722.253-1.585-.079-1.917s-.568.258-.525 1.312m-19.914 1.92c-2.935 1.366-5.182 2.825-4.995 3.241 1.976 4.38 6.068 11.352 6.443 10.977.263-.263-.881-2.783-2.542-5.6S69.483 37 70.009 37c1.323 0 6.202 9.85 5.468 11.037-1.493 2.415.937 2.591 4.935.356 2.714-1.516 5.013-3.769 6.025-5.901 1.499-3.158 1.503-3.707.052-6.514-1.35-2.609-4.868-5.003-7.304-4.968-.377.005-3.086 1.127-6.02 2.493m3.585.186c-2.348.614-2.217 1.681.909 7.426 2.989 5.492 3.912 5.92 5.457 2.53.858-1.884.65-3.184-1.042-6.5-1.163-2.28-2.443-4.093-2.844-4.029-.402.064-1.517.322-2.48.573M79 36c.589 1.1 1.295 2 1.57 2s.019-.9-.57-2-1.295-2-1.57-2-.019.9.57 2m42.783 9.291c-2.594 1.215-4.94 2.766-5.214 3.447-.376.937 8.834-3.457 11.348-5.414 1.311-1.02-2.068.063-6.134 1.967m-68.86 2.632C51.315 49.531 50 51.709 50 52.764s1.975 4.009 4.388 6.564c4.183 4.428 4.536 4.594 7.536 3.548 4.106-1.431 7.496-7.641 6.132-11.229-2.65-6.97-10.063-8.794-15.133-3.724m63.577 3.724c-6.05 3.017-9.875 5.183-8.5 4.813s5.531-2.196 9.235-4.058c4.845-2.435 8.695-3.567 13.722-4.035 7.724-.717 8.64-2.414 1.234-2.286-3.578.062-7.3 1.382-15.691 5.566m81.138-2.799c-.888.981-1.882 3.329-2.21 5.218-.434 2.499-.318 3.036.427 1.974.878-1.253 1.351-1.183 3.334.5l2.311 1.96-1.758-2.088c-1.68-1.995-1.677-2.161.079-3.75 2.325-2.104 3.793-2.11 4.596-.019.346.904.917 1.357 1.267 1.006.729-.729-2.359-4.405-4.797-5.709-1.133-.607-2.131-.328-3.249.908M54 50.501C54 52.715 60.742 60 62.792 60c2.358 0 1.155-3.471-2.542-7.338-3.129-3.272-3.294-3.633-.999-2.176 1.513.96 3.636 2.93 4.718 4.379s1.982 2.161 1.999 1.581c.018-.579-1.568-2.604-3.523-4.5-4.14-4.013-8.445-4.75-8.445-1.445m96.468 3.507c1.066 3.511 2.532 4.851 2.532 2.314 0-1.142-.74-2.691-1.644-3.442-1.472-1.221-1.565-1.103-.888 1.128m-57.655 1.675c.721.289 1.584.253 1.916-.079s-.258-.568-1.312-.525c-1.165.048-1.402.285-.604.604m-5.952 2.376-2.361 2.06 3-1.757C91.448 56.05 91.507 56 90.277 56c-.58 0-2.118.927-3.416 2.059m146.416 2.097c13.375 23.087 19.043 43.1 19.072 67.344.039 33.257-11.719 62.693-34.752 87-4.169 4.4-7.584 8.338-7.589 8.75-.021 1.948 2.321.191 8.148-6.112 13.684-14.802 24.337-32.561 29.776-49.638 5.162-16.209 6.495-24.672 6.454-41-.041-16.829-2.456-29.988-8.258-45-3.424-8.862-10.951-22.304-13.747-24.551-1.303-1.048-1.056-.161.896 3.207M50.97 58.944c.573 1.07 1.535 2.25 2.139 2.623s.325-.501-.62-1.944c-2.002-3.055-3.038-3.518-1.519-.679m105.991.772c-2.289.245-4.024 1.158-4.911 2.582-1.246 2-1.221 2.078.265.85.9-.744 4.01-1.932 6.91-2.64 5.235-1.277 4.536-1.522-2.264-.792M37.137 66.799c-2.543 3.744-3.682 6.32-3.164 7.157.601.972.982.761 1.485-.824C35.83 71.959 36.581 71 37.126 71c.546 0 .671.52.279 1.155-.448.724-.274.882.467.424.671-.415 3.318.807 6.139 2.834l4.959 3.562 1.686-2.573c1.063-1.622 1.313-2.818.678-3.237-.554-.366-3.348-2.185-6.209-4.044-4.863-3.158-5.097-3.494-3.598-5.151.993-1.098 1.219-2.009.593-2.396-.556-.344-2.799 2.008-4.983 5.225M71.8 69.25c-4.105 3.987-8.935 9.422-10.733 12.077-4.801 7.088-10.788 20.402-12.718 28.281-1.871 7.633-2.412 29.721-.799 32.571.632 1.117.95-3.399.95-13.5 0-16.933 1.488-23.748 8.015-36.709C61.694 81.685 74.476 66 77.677 66c.689 0 1.734-.9 2.323-2 2.012-3.76-.733-2.002-8.2 5.25m139.121-5.5c-1.127 1.489-1.115 1.563.077.5 1.577-1.406 3.002-1.636 3.002-.484 0 1.269-10.927 7.397-12.002 6.732-1.744-1.077-1.088.686 2.104 5.661 1.727 2.69 3.572 4.543 4.162 4.178.649-.401.138-1.403-1.316-2.58l-2.377-1.925 2.465-1.894c3.085-2.371 4.585-2.419 5.884-.188.561.963 1.033 1.214 1.05.559.016-.655-.449-1.487-1.035-1.849-.697-.431-.471-1.315.655-2.559 2.298-2.54 3.073-2.404 4.838.849.821 1.513 1.51 2.122 1.532 1.355.057-1.983-5.236-10.101-6.588-10.103-.62-.001-1.723.786-2.451 1.748m-36.377 1.75c1.327 2.89 1.164 12.193-.238 13.595-.925.924-1.072.654-.652-1.201.484-2.137.333-2.072-1.412.606-2.753 4.224-5.271 6.256-9.808 7.918-2.164.793-3.176 1.473-2.249 1.512 2.772.115 7.125-1.887 10.311-4.744l2.997-2.686-2.497 2.845c-4.253 4.848-7.53 5.986-15.189 5.274L149 87.986l-.099 4.257a160 160 0 0 1-.495 8.661c-.466 5.199.925 7.524 3.633 6.075 1.006-.538 3.772-.989 6.145-1.001l4.316-.022L160 104c-1.375-1.076-3.963-1.966-5.75-1.978L151 102V89.728l4.642.636c8.925 1.224 15.005-2.086 19.426-10.574 2.479-4.761 2.614-12.99.245-14.918-1.507-1.225-1.589-1.158-.769.628m-94.76 3.133c-.851 3.881.611 9.453 3.29 12.537l2.025 2.33-1.762-3.5c-.969-1.925-2.01-5.975-2.314-9-.494-4.934-.622-5.177-1.239-2.367m-5.531 1.882c-9.35 8.004-19.2 24.641-22.749 38.428C48.696 119.85 48.236 140 50.795 140c.388 0 .715-6.412.726-14.25.02-13.378.212-14.786 3.135-23.011 4.216-11.865 8.492-18.793 17.094-27.699 3.987-4.128 7.25-7.626 7.25-7.773 0-.659-.906-.04-4.747 3.248m-35.894-.744c.262.425 2.651 2.258 5.309 4.075L48.5 77.15 44 73.078c-4.05-3.665-6.893-5.331-5.641-3.307m101.292 5.695c-.327.854-.954 1.436-1.393 1.293-.438-.142-2.138.809-3.777 2.115-2.513 2.001-2.628 2.265-.731 1.683 2.642-.812 2.954.208.592 1.935-1.47 1.075-1.344 1.291 1.118 1.909 3.146.789 4.434.093 2.819-1.522-.784-.784-.521-2.049.94-4.526 1.116-1.891 1.804-3.664 1.529-3.939s-.769.198-1.097 1.052m-2.984 2.201c-.367.366-.667 1.131-.667 1.7 0 .626.466.567 1.183-.15.651-.651.951-1.416.667-1.7s-.817-.217-1.183.15m11.362 2.798c-.691.832-1.614 1.291-2.052 1.021-1.098-.679-3.977.52-3.977 1.656 0 .524.872.462 2-.142 2.142-1.146 2.705-.105.913 1.687-.783.783-.783 1.275 0 1.759 1.423.88 3.295-.3 2.505-1.578-.337-.547.177-1.868 1.145-2.937.967-1.069 1.525-2.176 1.24-2.461s-1.083.163-1.774.995m44.741 1.564c9.522 15.851 13.309 28.1 13.683 44.25.288 12.454.961 15.361 2.123 9.167 1.079-5.752-.284-21.082-2.616-29.419-2.491-8.903-8.998-21.809-12.676-25.141L190.65 78.5zM126 82c0 .55.927 1 2.059 1s1.781-.45 1.441-1-1.266-1-2.059-1-1.441.45-1.441 1m-8.25.662c.688.278 1.813.278 2.5 0 .688-.277.125-.504-1.25-.504s-1.937.227-1.25.504m-14.667 3.503c-2.275 2.875-2.74 3.028-7.898 2.6-4.773-.395-5.243-.28-3.641.89 2.478 1.812 11.456 1.812 11.456 0 0-2.265 3.495-4.667 8.11-5.574l4.39-.862-5-.054c-4.412-.048-5.284.305-7.417 3M99 85.756c-2.765 1.258-3.106 1.682-1.625 2.016 1.035.233 2.814-.516 3.972-1.675 2.442-2.441 2.31-2.46-2.347-.341M244.604 92c2.827 10.105 3.538 13.854 4.6 24.25 3.603 35.286-8.236 69.619-33.056 95.862-5.143 5.438-8.788 9.888-8.099 9.888 2.155 0 15.848-15.098 21.984-24.241 10.212-15.213 16.387-30.693 19.598-49.123 2.911-16.705.217-49.724-4.689-57.494-.811-1.283-.885-1.096-.338.858m-97.525.583c.048 1.165.285 1.402.604.605.289-.722.253-1.585-.079-1.917s-.568.258-.525 1.312m-43.434 6.694c-.416 1.659-1.525 2.653-3.382 3.033-1.52.311-3.663 1.302-4.763 2.202s-1.427 1.345-.726.988c2.177-1.107 7.223.513 7.258 2.329.028 1.47.202 1.446 1.45-.202.868-1.146 1.211-3.087.884-5-.409-2.396-.284-2.776.534-1.627.951 1.333 1.069 1.333 1.069 0 0-.825-.383-2.105-.852-2.845-.635-1.001-1.011-.714-1.472 1.122m27.168-.594c.721.289 1.584.253 1.916-.079s-.258-.568-1.312-.525c-1.165.048-1.402.285-.604.604M137 100.5c1.925.741 4.175 1.348 5 1.348s-.075-.607-2-1.348-4.175-1.348-5-1.348.075.607 2 1.348m-29 2.453c0 .558 2.175.707 5.25.36 7.101-.802 7.263-1.313.417-1.313-3.117 0-5.667.429-5.667.953M151 104c0 .55.423 1 .941 1s1.219-.45 1.559-1-.084-1-.941-1-1.559.45-1.559 1m49.369.187c2.174 7.054 2.954 11.783 3.596 21.813l.736 11.5.135-9.5c.131-9.247-1.713-20.455-3.927-23.867-.966-1.489-1.014-1.484-.54.054m-90.57.539c-3.727.392-5.488 2.615-4.97 6.277.385 2.72-4.795 18.332-6.785 20.451-7.872 8.378-5.193 22.035 5.61 28.603 4.568 2.776 5.31 3.711 5.331 6.707.008 1.245.578 3.171 1.265 4.28 1.03 1.663.986 2.185-.25 2.971-1.161.739-.879.958 1.25.97 1.649.009 2.75-.525 2.75-1.335 0-1.705 5.964-10.02 6.676-9.308.29.291-.193 1.558-1.074 2.816S118 170.245 118 171.223c0 2.225 3.548 2.398 4.386.214.927-2.416 2.406-.798 1.863 2.039-.406 2.126-.109 2.522 1.884 2.509 3.777-.025 5.222-1.436 4.483-4.378-.923-3.68.743-3.244 2.454.642.786 1.787 2.217 3.395 3.18 3.574 1.401.259 1.75-.39 1.75-3.25 0-1.965.402-3.573.893-3.573 1 0 2.363 2.714 2.51 5 .054.825 1.047 1.548 2.208 1.607s3.412.377 5 .708c2.589.54 2.526.441-.611-.953-4.617-2.052-4.537-1.864-2.114-4.944 1.163-1.478 2.114-3.715 2.114-4.971 0-1.493 1.126-2.989 3.25-4.318 3.701-2.317 8.295-7.801 9.758-11.651 2.27-5.97.619-13.761-4.021-18.978-1.704-1.916-6.008-14.83-6.332-19-.133-1.72-.984-2.042-6.069-2.299-3.252-.164-11.457-1.401-18.233-2.75s-12.44-2.375-12.587-2.283c-.146.093-1.931.343-3.967.558m6.201 4.332c-1.925.469-4.287.618-5.25.33-2.058-.615-2.252.543-.493 2.948 1.185 1.621 1.681 1.623 8.739.029 6.316-1.427 8.539-1.509 14.262-.528 8.305 1.425 10.742 1.462 10.742.163 0-.55-1.76-1-3.912-1s-7.439-.675-11.75-1.5-8.063-1.454-8.338-1.397-2.075.486-4 .955m-9.026 8.469c-3.409 3.629-3.24 8.988.382 12.103 2.071 1.781 3.922 2.362 7.45 2.338 5.047-.034 7.161-1.143 9.093-4.769 1.631-3.061-1.034-7.743-5.883-10.336-4.784-2.558-8.208-2.352-11.042.664m31.526-1.363c-10.912 6.02-9.334 15.836 2.546 15.836 4.106 0 5.14-.432 7.365-3.077 3.259-3.873 3.308-7.856.137-11.277-2.626-2.833-6.549-3.412-10.048-1.482m-24.25 4.48c-.687.287-1.25 1.385-1.25 2.439 0 2.399-1.708 2.525-2.272.167-.395-1.651-.462-1.649-1.195.037-.511 1.178-.17 2.456 1.001 3.75 1.821 2.013 5.466 2.7 5.466 1.03 0-.513.926-1.226 2.058-1.585 1.521-.483 1.978-1.349 1.75-3.318-.306-2.649-2.678-3.725-5.558-2.52m21.965 2.15c-1.531 2.337-1.495 2.561.696 4.335 2.953 2.391 3.953 2.319 7.443-.536 2.444-1.998 2.693-2.637 1.732-4.433-1.649-3.08-7.691-2.692-9.871.634m5.939-.356c.191.917.796 1.644 1.346 1.615 1.484-.079 1.212-2.316-.346-2.835-.841-.28-1.215.177-1 1.22m-18.074 8.977-2.268 2.414 2.094 1.121c1.152.616 2.094 1.753 2.094 2.526 0 2.568 1.989 2.683 2.945.17.517-1.361 1.905-2.781 3.083-3.155l2.143-.68-2.26-2.406c-2.86-3.044-4.964-3.041-7.831.01m-21.64 3.036c-.883 1.348-1.45 3.26-1.259 4.25.269 1.398.845.993 2.583-1.819 1.23-1.99 2.236-3.902 2.236-4.25 0-1.5-2.083-.435-3.56 1.819m-52.425 8.299c.009.412.434 1.412.946 2.221 1.152 1.822 2.504.682 1.694-1.428-.598-1.558-2.668-2.18-2.64-.793m155.26 3.5c-.533.688-1.751 3.7-2.707 6.695-3.951 12.388-12.415 25.246-22.361 33.97-6.114 5.364-6.657 8.056-.71 3.519 9.208-7.023 21.92-26.781 25.854-40.184 1.593-5.427 1.58-6.134-.076-4m-156.544 1.83c.354 1.352.807 1.806 1.057 1.057.24-.722-.038-1.787-.62-2.369-.742-.742-.872-.351-.437 1.312M52 149.597c0 1.21 2.133 4.403 2.942 4.403 1.358 0 .029-3.797-1.541-4.399-.77-.296-1.401-.298-1.401-.004m147.568 4.153c-3.272 9.755-9.677 19.518-18.782 28.624-4.879 4.881-8.633 9.112-8.342 9.404 1.002 1.001 19.058-18.281 22.266-23.778 3.829-6.562 8.649-19 7.362-19-.501 0-1.628 2.137-2.504 4.75M51 155.305C51 156.43 55.871 167 56.39 167c.275 0-.642-2.588-2.038-5.75-2.511-5.691-3.352-7.182-3.352-5.945m40.083.978c.23.156 1.152.842 2.05 1.525 1.332 1.013 1.742.961 2.219-.282.433-1.13-.099-1.526-2.05-1.526-1.449 0-2.448.127-2.219.283M55 158.54c0 1.191 4.508 9.294 8.211 14.758C67.47 179.584 77.386 190 79.111 190c.586 0-1.752-3.262-5.198-7.25-5.839-6.757-11.064-14.237-15.116-21.639C57.335 158.442 55 156.86 55 158.54m33.75 3.68c1.237.597 2.257 1.579 2.265 2.183s.435.434.948-.377c1.092-1.728-.431-3.022-3.463-2.943-1.858.049-1.84.129.25 1.137M66 163.378c0 .207.787.995 1.75 1.75 1.586 1.243 1.621 1.208.378-.378-1.307-1.666-2.128-2.195-2.128-1.372M84.5 167c.34.55 1.266 1 2.059 1s1.441.54 1.441 1.2c0 .911.299.901 1.242-.042.988-.988.938-1.433-.25-2.184-1.987-1.256-5.273-1.237-4.492.026m-2.116 6.137c3.15 1.661 4.042 1.795 4.72.706.913-1.467-1.65-2.6-6.104-2.699-2.186-.049-2.012.202 1.384 1.993m27.283 3.53c-.367.366-.667 1.131-.667 1.7 0 .626.466.567 1.183-.15.651-.651.951-1.416.667-1.7s-.817-.217-1.183.15m34.333.152c0 1.208 1.897 2.617 2.591 1.924.251-.252-.229-1.027-1.067-1.723-.95-.789-1.524-.865-1.524-.201m-13.917 3.546c.23.2 1.419.885 2.644 1.523 1.873.973 2.135.915 1.644-.365-.322-.838-1.512-1.523-2.645-1.523-1.132 0-1.872.164-1.643.365M148 188.251c.275.313 4.803 3.004 10.062 5.98 9.318 5.273 14.104 7.602 12.666 6.164-.391-.391-.214-1.31.393-2.041.822-.99.756-1.455-.258-1.816-.75-.268-5.413-2.03-10.363-3.916s-9.9-3.769-11-4.185-1.775-.499-1.5-.186m-69 14.861c-7.114 4.221-13.176 8.491-9.5 6.692 2.944-1.441 18.5-11.003 18.5-11.371 0-.664.041-.686-9 4.679m71.5-2.318c-5.503 1.976-9.673 2.632-19.5 3.071-10.519.47-11.557.648-6.55 1.125 11.205 1.067 28.15-1.709 33.05-5.414 2.655-2.008 1.358-1.782-7 1.218m-58.086-.933c1.301 2.105 9.913 5.849 17.586 7.647 10.46 2.45 27.129 2.3 37.08-.333 10.249-2.713 15.513-4.982 14.32-6.175-.606-.606-3.645-.019-8.319 1.607-16.035 5.576-34.514 5.54-50.189-.098-10.71-3.852-11.317-4.006-10.478-2.648m94.224 4.415c-.656 2.509-.703 2.436 1.862 2.879 1.51.26 2.072-.276 2.296-2.189.385-3.305-3.313-3.919-4.158-.69M71.325 215.003c-1.196.482-4.121 2.111-6.5 3.619s-6.35 3.58-8.825 4.604c-3.775 1.562-3.99 1.781-1.335 1.36 1.74-.276 7.121-2.771 11.958-5.544 8.207-4.706 9.842-6.11 4.702-4.039m101.175 2.125c-3.3 1.706-8.475 4.156-11.5 5.445-3.025 1.288-4.781 2.361-3.902 2.385 1.738.046 24.043-10.783 22.402-10.876-.55-.031-3.7 1.339-7 3.046M111 218.5c-.694.837-.803 1.5-.245 1.5.55 0 1.56-.675 2.245-1.5.694-.837.803-1.5.245-1.5-.55 0-1.56.675-2.245 1.5m-45.689 4.565c-6.107 3.333-10.878 5.215-14.224 5.611-2.933.347-4.782 1.009-4.427 1.584.974 1.574 10.501-.003 13.527-2.24 1.502-1.111 3.429-2.02 4.281-2.02s2.928-1.228 4.612-2.729 4.269-3.265 5.742-3.919 2.003-1.215 1.178-1.246-5.635 2.201-10.689 4.959m50.301-2.596c-.912 1.392-1.198 2.531-.635 2.531s1.023.45 1.023 1-.805 1-1.79 1c-1.19 0-3.066 2.365-5.604 7.062-2.098 3.885-3.607 7.271-3.353 7.525.653.652 2.121-1.323 5.266-7.087 3.583-6.568 3.92-6.871 6.247-5.625 1.872 1.002 1.953.8 1.474-3.658-.278-2.594-.61-4.844-.738-4.998-.127-.155-.977.858-1.89 2.25m54.393 2.529c-5.769 2.748-12.621 5.28-15.228 5.626-2.736.363-4.481 1.046-4.128 1.617.87 1.408 7.846.269 12.712-2.075a399 399 0 0 1 6.639-3.13c4.275-1.939 12.552-6.988 11.497-7.013-.552-.012-5.723 2.226-11.492 4.975m-129.9-2.194c-.531.992-.641 2.329-.244 2.971.455.736 1.138.067 1.844-1.803 1.213-3.216-.022-4.118-1.6-1.168m47.848-1.613c-.026.17-.146 2.643-.267 5.496-.262 6.174-3.01 9.731-8.876 11.488-4.164 1.248-4.391 1.86-2.346 6.325 1.292 2.823 1.533 2.602 1.892-1.737.079-.955 1.708-2.578 3.619-3.605 2.052-1.104 4.407-3.63 5.75-6.171 2.358-4.458 3.018-10.41 1.275-11.487-.55-.34-1.021-.479-1.047-.309m57.093 1.254c-.66.795-1.052 2.303-.873 3.351.259 1.512.663 1.213 1.951-1.445 1.663-3.433 1.065-4.489-1.078-1.906M191 221.777c0 3.264-2.498 7.223-4.557 7.223-.794 0-1.443.45-1.443 1 0 1.676 1.693 1.13 4.923-1.589 2.329-1.959 3.077-3.419 3.077-6 0-1.876-.45-3.411-1-3.411s-1 1.25-1 2.777m-110.351.285C78.188 223.997 72 232.131 72 233.43c0 1.738 2.29.083 4.4-3.18 1.335-2.062 3.636-5.017 5.114-6.565 3.299-3.455 2.756-4.472-.865-1.623m20.957-.478c-.373.973-.15 1.431.581 1.187 1.495-.498 2.318-2.771 1.003-2.771-.537 0-1.249.713-1.584 1.584m81.212 2.292c-2.375 2.241-3.868 4.073-3.318 4.072 1.345-.003 8.797-6.985 8.147-7.634-.281-.282-2.455 1.321-4.829 3.562m-137.287-1.583c-.428.986-.497 2.074-.155 2.417 1.016 1.015 1.835-.411 1.367-2.382-.414-1.747-.468-1.748-1.212-.035m103.805.274c-.331.862-.092 2.077.531 2.7.827.827 1.133.83 1.133.015 0-.615.273-1.83.607-2.7.334-.872.096-1.582-.531-1.582s-1.409.705-1.74 1.567m52.714 1.873c-.657.792-2.175 1.631-3.373 1.864l-2.177.424 2.139.136c1.177.075 3.202-.749 4.5-1.831s1.854-1.981 1.233-2c-.62-.018-1.665.615-2.322 1.407M95 225.5c-1.554 1.872-.275 1.872 3 0 2.355-1.346 2.377-1.431.372-1.465-1.17-.019-2.687.64-3.372 1.465m112.336 1.067c-.331.862-.092 2.077.531 2.7.844.844 1.133.444 1.133-1.567 0-3.009-.749-3.518-1.664-1.133m-106.586.01c-.412.416-.75 1.671-.75 2.79 0 1.471.302 1.731 1.094.939.601-.601.939-1.857.75-2.789s-.682-1.356-1.094-.94m-20.786 3.587c-1.145 2.233-1.118 2.26.61.61.994-.95 1.533-2.001 1.197-2.336s-1.148.442-1.807 1.726M66.5 230c.34.55.816 1 1.059 1s.441-.45.441-1-.477-1-1.059-1-.781.45-.441 1m111.5 0c0 .55.477 1 1.059 1s.781-.45.441-1-.816-1-1.059-1-.441.45-.441 1m-83 1.559c0 .857.457 1.276 1.016.931.559-.346.758-1.047.441-1.559-.857-1.387-1.457-1.129-1.457.628m21-.5c0 .582.45.781 1 .441s1-.816 1-1.059-.45-.441-1-.441-1 .477-1 1.059m4.015 1.691c.011 2.001.258 2.366.908 1.341.49-.775.66-2.013.377-2.75-.811-2.115-1.301-1.577-1.285 1.409m10.539-1.413c-1.006.736-1.646 1.887-1.422 2.56.26.78 1.277.297 2.812-1.338 2.547-2.711 1.684-3.47-1.39-1.222m68.529 2.729c-3.03 5.392-1.936 6.245 1.345 1.048 2.769-4.387 3.019-5.114 1.756-5.114-.449 0-1.844 1.83-3.101 4.066M58 231.882c0 .55.45 1.278 1 1.618s1 .168 1-.382-.45-1.278-1-1.618-1-.168-1 .382m33.02.594c-.789.95-.865 1.524-.201 1.524 1.208 0 2.617-1.897 1.924-2.591-.252-.251-1.027.229-1.723 1.067m32.98-.182c0 1.942-7.545 8.706-9.711 8.706-1.039 0-2.381-.492-2.982-1.093-.79-.79-1.657-.79-3.134 0-3.262 1.746-5.173 1.329-5.173-1.13v-2.222l-1.557 2.222c-1.652 2.36-5.322 2.944-7.13 1.136-.783-.783-1.275-.783-1.759 0-.37.598-1.905 1.087-3.413 1.087-3.174 0-5.141 1.619-5.141 4.231 0 1.008-.676 2.091-1.502 2.408-3.145 1.207-6.209-.618-8.598-5.121-1.318-2.485-2.798-4.518-3.288-4.518s-.624 2.25-.298 5c.471 3.977.295 5-.861 5-2.008 0-1.826 1.643.271 2.447 1.042.4 2.174.045 2.864-.898 1.033-1.413 1.492-1.413 4.871-.002 3.384 1.414 3.953 1.413 6.136-.017 1.391-.912 2.405-2.55 2.405-3.886 0-2.3 1.475-2.792 7.75-2.587.963.032 4.45-.041 7.75-.161s7.125-.147 8.5-.06 3.542.206 4.816.263c1.566.071 3.75-1.458 6.75-4.726 4.268-4.649 5.537-7.373 3.434-7.373-.55 0-1 .582-1 1.294m36.948 2.486c-.886 2.957-.84 4.494.21 7.052 1.311 3.195 1.344 3.107 1.419-3.78.042-3.879-.053-7.052-.21-7.052-.158 0-.796 1.701-1.419 3.78m5.707-1.951c-2.008 2.219-2.18 8.491-.275 10.071 1.147.952 1.297.411.888-3.217-.435-3.859-.175-4.611 2.255-6.522 2.409-1.895 2.503-2.161.767-2.161-1.089 0-2.725.823-3.635 1.829m26.896 1.515c-2.861 3.751-3.359 5.571-.985 3.601 1.617-1.342 4.853-6.945 4.011-6.945-.262 0-1.623 1.505-3.026 3.344m14.114.233c-2.066 4.331-2.091 5.558-.06 2.923 2.567-3.33 3.445-5.351 2.562-5.896-.46-.285-1.587 1.053-2.502 2.973m5.335-2.305c0 2.256-6.071 8.728-8.186 8.728-1.708 0-1.968-.5-1.592-3.06l.449-3.061-2.178 2.732c-1.752 2.197-3.133 2.788-7.052 3.019-2.786.164-5.166-.186-5.557-.817-.408-.661-1.332.153-2.3 2.024-2.363 4.57-6.716 6.466-13.686 5.962-5.92-.428-6.768.537-2.051 2.336 4.488 1.711 10.715.144 14.825-3.732 3.881-3.661 3.804-3.645 17.547-3.421 4.51.073 4.874-.135 8.225-4.703 3.534-4.817 4.399-7.279 2.556-7.279-.55 0-1 .572-1 1.272M136.71 234c-.307 1.173-1.364 2-2.557 2-1.119 0-2.313.45-2.653 1-.354.572.536 1 2.081 1 2.673 0 5.326-2.339 5.387-4.75.051-2.012-1.686-1.435-2.258.75m50.36-1.309c.039.445.457 1.709.93 2.809.829 1.928.862 1.921.93-.191.038-1.205-.38-2.469-.93-2.809s-.968-.254-.93.191M115 234.622c0 1.329.271 1.398 1.5.378.825-.685 1.5-1.415 1.5-1.622s-.675-.378-1.5-.378-1.5.73-1.5 1.622m60.176.128c-.492.963-1.151 3.1-1.465 4.75s-.876 3.787-1.248 4.75c-1.033 2.671 3.816 2.274 7.138-.583 1.943-1.672 2.687-3.228 2.623-5.487-.151-5.326-1.674-6.134-2.224-1.18-.346 3.111-.963 4.5-2 4.5-1.148 0-1.425-.998-1.183-4.25.339-4.531-.191-5.338-1.641-2.5m-81.51-.083c-.367.367-1.679.74-2.916.829-1.479.105-2.36.905-2.57 2.332-.175 1.195.162 2.172.75 2.172.589 0 1.07-.675 1.07-1.5s.62-1.5 1.378-1.5 1.937-.675 2.622-1.5c1.227-1.478.965-2.132-.334-.833m-30.06 3.083c-.781 3.319.008 9.25 1.231 9.25.372 0 .54-2.137.371-4.75-.464-7.204-.766-8.052-1.602-4.5M96.5 238c-.34.55-.168 1 .382 1s1.278-.45 1.618-1 .168-1-.382-1-1.278.45-1.618 1m16.5 0c0 .55.45 1 1 1s1-.45 1-1-.45-1-1-1-1 .45-1 1m-32 5c0 .55.45 1 1 1s1-.45 1-1-.45-1-1-1-1 .45-1 1m7.209 4.845c.378 1.966 14.401 5.494 28.612 7.198 12.92 1.55 28.838.088 44.262-4.065 3.472-.935 4.001-1.351 2.668-2.098-1.059-.592-3.331-.511-6.246.223-2.52.635-4.82.916-5.111.625s1.299-.838 3.533-1.216c2.235-.377 4.357-1.162 4.717-1.745.44-.713-.293-.813-2.245-.308-8.79 2.275-19.336 3.475-30.816 3.506-7.104.019-12.678.274-12.386.565.815.815 23.546.78 30.303-.047 3.3-.403 5.762-.477 5.472-.163-.291.314-5.579 1.099-11.75 1.745-13.356 1.399-28.224.176-42.291-3.478-7.9-2.052-8.992-2.145-8.722-.742m21.541 1.817c.688.278 1.813.278 2.5 0 .688-.277.125-.504-1.25-.504s-1.937.227-1.25.504"/></svg>