<svg xmlns="http://www.w3.org/2000/svg" width="256" height="256"><path fill="#1976D2" fill-opacity=".016" fill-rule="evenodd" d="M0 128.004v128.004l128.25-.254 128.25-.254.254-127.75L257.008 0H0zm.485.496c0 70.4.119 99.053.265 63.672.146-35.38.146-92.98 0-128C.604 29.153.485 58.1.485 128.5"/><path fill="#1976D2" fill-opacity=".203" fill-rule="evenodd" d="M0 127.511v41.497l128.25-.254 128.25-.254.261-41.5.261-41.5-128.511.258L0 86.015zm.458-.011c0 23.1.131 32.407.291 20.683.16-11.725.16-30.625 0-42C.588 94.807.457 104.4.458 127.5m70.579-25.569c-.783 1.464-.643 2.32.581 3.544.888.888 2.092 1.455 2.677 1.26 1.762-.587 3.064-3.358 2.396-5.099-.862-2.245-4.393-2.061-5.654.295m16.672-1.307c-1.277 1.277-.743 5.149.791 5.738 2.672 1.025 4.628-.447 4.304-3.24-.299-2.575-3.465-4.127-5.095-2.498m16.541.027c-1.666.687-1.592 3.82.123 5.244 2.206 1.831 4.779.226 4.431-2.764-.297-2.556-2.053-3.512-4.554-2.48m15.95.549c-1.751 1.751-1.47 3.585.731 4.763 1.457.78 2.315.649 3.498-.534 1.183-1.183 1.314-2.041.534-3.498-1.178-2.201-3.012-2.482-4.763-.731m-14.788 47.169c-.289.753-.388 3.791-.219 6.75l.307 5.381 4.332.311c2.78.2 5.225-.273 6.825-1.322 2.222-1.456 2.421-2.09 1.828-5.812-.367-2.297-1.387-4.739-2.267-5.427-2.201-1.719-10.134-1.632-10.806.119m20.788 4.781.3 6.35 3.682.91c2.888.713 4.235.547 6.25-.773 2.24-1.468 2.568-2.383 2.568-7.16 0-4.114-.36-5.477-1.448-5.477-1.041 0-1.532 1.473-1.75 5.25-.282 4.9-.486 5.271-3.058 5.567-3.047.351-3.488-.339-3.992-6.247-.184-2.162-.901-4.12-1.594-4.351-.943-.314-1.183 1.17-.958 5.931m20.004.6c.277 6.323 1.884 8.959 2.616 4.29.438-2.798 3.355-2.574 5.993.46 3.222 3.706 5.265 3.382 3.184-.505-.67-1.252-.67-2.079 0-2.493 1.393-.861 1.258-5.847-.197-7.302-.66-.66-3.606-1.2-6.546-1.2h-5.345zm22.546-5.67c-1.296.755-1.75 2.311-1.75 5.994 0 4.421.286 5.084 2.565 5.951 1.411.536 4.336.975 6.5.975 3.924 0 3.935-.011 3.935-4 0-3.778-.167-4-3-4-3.251 0-4.018 1.395-1.333 2.426 2.402.921.181 2.831-2.802 2.409-1.937-.274-2.421-1.013-2.675-4.085l-.311-3.75h5.061c3.831 0 5.06-.364 5.06-1.5 0-1.127-1.181-1.492-4.75-1.47-2.613.017-5.537.489-6.5 1.05m18.454 5.67.296 6.75 6.25.298c5.009.238 6.25.001 6.25-1.195 0-1.072-1.341-1.579-4.75-1.798-4.871-.313-6.528-2.052-2.5-2.625 3.158-.448 2.893-3.18-.309-3.18-1.451 0-2.292-.433-1.941-1 .34-.55 2.616-1 5.059-1 3.281 0 4.441-.392 4.441-1.5 0-1.181-1.394-1.5-6.546-1.5h-6.545zm20.208-5.381c-.927 2.416.047 11.96 1.261 12.36.645.212 1.32-.648 1.5-1.911.464-3.263 3.527-3.469 5.942-.399 2.709 3.444 3.757 3.253 3.674-.669-.037-1.787.254-4.195.649-5.351 1.138-3.333-1.748-5.399-7.541-5.399-3.276 0-5.138.465-5.485 1.369M108.5 151c-.368.595.823 1 2.941 1 1.957 0 3.559-.45 3.559-1s-1.323-1-2.941-1c-1.618 0-3.219.45-3.559 1m40.5.5c0 1.048 1.056 1.5 3.5 1.5s3.5-.452 3.5-1.5-1.056-1.5-3.5-1.5-3.5.452-3.5 1.5m61.53-.549c-.361.585.014 1.321.834 1.635 2.118.813 6.136.102 6.136-1.086 0-1.378-6.157-1.864-6.97-.549m-102 5c-.361.585.014 1.321.834 1.635 2.118.813 6.136.102 6.136-1.086 0-1.378-6.157-1.864-6.97-.549"/><path fill="#1976D2" fill-opacity=".555" fill-rule="evenodd" d="M0 127.511v41.497l128.25-.254 128.25-.254.261-41.5.261-41.5-128.511.258L0 86.015zm.458-.011c0 23.1.131 32.407.291 20.683.16-11.725.16-30.625 0-42C.588 94.807.457 104.4.458 127.5m24.193-37.745c-.346.561-19.011 47.253-22.383 55.995-.747 1.936 26.802 1.715 33.482-.268 10.617-3.153 18.698-18.114 13.666-25.299-1.499-2.14-1.44-2.377 1.107-4.38 6.076-4.779 11.445-13.426 11.467-18.471C62.022 90.263 58.706 89 40.109 89c-8.245 0-15.201.34-15.458.755M116.15 92l-1.046 3h7.366c11.596 0 13.548 1.656 10.947 9.289-2.388 7.008-3.522 7.595-15.31 7.924l-10.318.287-4.26 10.75L99.27 134h13.415l2.445-6.25 2.446-6.25 6.462-.569c10.774-.949 15.541-4.67 19.604-15.301 3.157-8.264 3.371-11.853.87-14.617-1.644-1.817-3.065-2.013-14.569-2.013h-12.747zm78.493 1.977c-4.013 1.274-6.636 3.858-8.78 8.648-2.501 5.588-1.216 9.121 4.669 12.841 2.453 1.55 4.948 3.408 5.546 4.128 1.551 1.868.147 5.406-2.145 5.406-1.542 0-1.933-.707-1.933-3.5V118h-6.393c-7.058 0-7.607.481-7.607 6.659 0 7.191 8.425 11.449 19.397 9.804 6.27-.94 10.287-3.758 12.837-9.007 2.037-4.193 2.095-4.781.715-7.259-.826-1.484-3.875-4.235-6.776-6.114-4.398-2.85-5.224-3.846-4.973-6 .209-1.801.981-2.68 2.55-2.903 1.973-.28 2.25.121 2.25 3.25V110H216.909l.685-3.652c1.534-8.174-3.065-12.655-13.376-13.032-3.695-.135-8.004.162-9.575.661m37.752.104c-6.678 1.938-12.011 11.077-9.578 16.416.624 1.371 3.352 3.856 6.062 5.524 5.55 3.415 6.55 5.01 4.715 7.519-1.815 2.482-4.094 1.298-4.094-2.128V118.5h-13l-.295 5.034c-.249 4.263.08 5.385 2.155 7.335 4.619 4.339 16.861 5.088 23.934 1.465 3.732-1.911 6.698-6.998 6.702-11.495.003-2.863-.667-4.226-3.073-6.25-1.692-1.424-3.426-2.589-3.854-2.589-.427 0-1.986-1.12-3.464-2.49-2.227-2.064-2.502-2.833-1.61-4.5.591-1.105 1.988-2.01 3.104-2.01 1.687 0 1.976.548 1.715 3.25l-.314 3.25h13l.901-3.648c1.203-4.867-1.589-9.864-6.45-11.546-4.041-1.397-12.135-1.507-16.556-.225m-74.976 1.385c-1.691.711-4.464 2.979-6.163 5.039-3.114 3.778-10.256 20.796-10.256 24.437 0 3.24 2.067 6.768 4.657 7.948 3.484 1.587 22.975 1.472 23.662-.14.294-.687 3.75-9.125 7.681-18.75s7.378-18.038 7.66-18.695c.738-1.722-23.097-1.581-27.241.161M34.094 100.25a267.033 267.033 0 0 1-2.475 6.122c-2.262 5.409-2.155 5.628 2.746 5.628 5.34 0 9.197-2.729 10.18-7.204.568-2.587.282-3.518-1.534-4.988-3.22-2.608-7.843-2.378-8.917.442m35.573-.583c-.833.832-.867 4.649-.06 6.751.726 1.893 6.417 2.158 8.193.382.66-.66 1.2-2.145 1.2-3.3 0-1.155-.54-2.64-1.2-3.3-1.276-1.276-7.015-1.652-8.133-.533m15.705 1.988c-.945 3.764.733 5.845 4.713 5.845 2.754 0 3.539-.49 4.313-2.69 1.265-3.598-.638-5.81-5.001-5.81-2.801 0-3.47.441-4.025 2.655m16.592-.588c-.86 1.608-.752 2.608.488 4.5 2.7 4.12 8.548 2.706 8.548-2.067 0-2.874-1.867-4.5-5.165-4.5-1.771 0-3.162.743-3.871 2.067m16.408.588c-.818 3.257.603 5.737 3.535 6.172 2.827.419 5.093-1.472 5.093-4.249 0-2.952-1.84-4.578-5.181-4.578-2.176 0-2.926.578-3.447 2.655m43.377 2.595c-2.108 1.614-7.94 16.41-7.549 19.151.229 1.599 1.015 2.099 3.3 2.099 2.698 0 3.322-.655 6.197-6.5 3.94-8.009 4.96-12.504 3.294-14.511-1.508-1.817-3.086-1.889-5.242-.239m-101.659 10c-.474 1.237-2.288 5.943-4.031 10.456-4.218 10.918-4.754 14.585-2.609 17.858 2.421 3.695 7.394 5.436 15.525 5.436h7.039l-4.825 7.75c-2.654 4.262-5.201 8.381-5.66 9.152-1.404 2.358 7.037.651 11.55-2.336 7.155-4.734 8.719-7.682 22.458-42.316l3.272-8.25H87.488l-4.494 11.65c-4.937 12.798-7.705 16.141-12.392 14.965-4.208-1.056-4.139-4.226.335-15.456C73.171 117.55 75 112.744 75 112.48c0-.264-3.161-.48-7.025-.48-6.363 0-7.106.212-7.885 2.25m-35.006 9c-.476 1.237-2.037 4.886-3.467 8.108-1.431 3.221-2.354 6.259-2.051 6.75 1.023 1.655 8.088.952 10.645-1.059 3.558-2.799 6.349-10.524 4.929-13.642-.896-1.965-1.839-2.407-5.143-2.407-3.273 0-4.212.43-4.913 2.25m143.697 24.167c-1.862.924-2.336 2.082-2.581 6.301-.265 4.561-.01 5.36 2.163 6.784 1.635 1.072 4.091 1.511 7.3 1.306l4.837-.308.305-4.75.305-4.75h-4.172c-3.91 0-4.141.157-3.693 2.5.495 2.588-1.682 3.677-2.499 1.25-1.093-3.249.456-4.75 4.902-4.75 3.057 0 4.597-.475 5.007-1.543.326-.849.309-1.826-.036-2.172-1.124-1.124-9.496-1.031-11.838.132m18.42-.562c-.913.579-1.211 2.882-1 7.735l.299 6.91h7c6.498 0 7.023-.161 7.32-2.25.257-1.809-.162-2.25-2.137-2.25-1.964 0-2.544-.6-2.896-3-.401-2.73-.186-3 2.386-3 2.107 0 2.827-.482 2.827-1.893 0-1.041-.712-2.166-1.582-2.5-2.304-.884-10.701-.714-12.217.248m19.999.345c-1.385 1.385-1.598 11.622-.286 13.696 1.219 1.925 4.086.616 4.086-1.865 0-2.805 2.432-2.546 4.408.469 1.525 2.328 4.474 3.284 5.858 1.9.33-.33.103-1.692-.506-3.027-.822-1.804-.805-2.728.067-3.6 1.757-1.757 1.418-4.528-.827-6.773-2.295-2.295-10.775-2.825-12.8-.8M105 153.893c0 5.363.351 7.028 1.582 7.5 2.36.906 6.954.734 9.853-.368 2.31-.879 2.565-1.505 2.565-6.3 0-2.929-.54-5.865-1.2-6.525-.66-.66-3.81-1.2-7-1.2H105zm20-1.085c0 4.312.455 6.324 1.654 7.32 2.058 1.708 9.817 1.801 11.481.137.679-.679 1.431-3.942 1.67-7.25.429-5.934.4-6.015-2.185-6.015-2.477 0-2.62.272-2.62 5 0 4.637-.178 5-2.445 5-2.208 0-2.475-.461-2.75-4.75-.26-4.053-.635-4.797-2.555-5.07-2.117-.3-2.25.033-2.25 5.628m20 1.085c0 4.603.415 7.046 1.25 7.353 2.062.758 3.75-.291 3.75-2.329 0-2.707 2.466-2.38 4.408.583 2.647 4.04 6.866 2.749 4.636-1.419-.697-1.301-.712-2.168-.047-2.579 1.393-.861 1.258-5.847-.197-7.302-.679-.679-3.933-1.2-7.5-1.2H145zm-34.187-2.21c.721.289 1.584.253 1.916-.079.332-.332-.258-.568-1.312-.525-1.165.048-1.402.285-.604.604m40.456.01c.973.254 2.323.237 3-.037.677-.274-.119-.481-1.769-.461-1.65.02-2.204.244-1.231.498m61.544-.01c.721.289 1.584.253 1.916-.079.332-.332-.258-.568-1.312-.525-1.165.048-1.402.285-.604.604m-102.063 4.979c.688.278 1.813.278 2.5 0 .688-.277.125-.504-1.25-.504s-1.937.227-1.25.504"/><path fill="#1976D2" fill-opacity=".978" fill-rule="evenodd" d="M0 127.511v41.497l128.25-.254 128.25-.254.261-41.5.261-41.5-128.511.258L0 86.015zm.441-.011c-.007 23.1.13 36.938.306 30.75L1.066 147l16.217-.006c8.919-.003 17.816-.449 19.769-.992 9.443-2.623 17.227-18.008 13.055-25.803-.993-1.855-.542-2.647 3.852-6.757 3.413-3.193 5.618-6.368 7.015-10.102 2.325-6.215 1.944-9.128-1.636-12.495-2.37-2.229-3.292-2.36-18.694-2.659l-16.2-.315-8.37 21.315C11.47 120.909 6.307 133.875 4.601 138L1.5 145.5l-.522-30c-.502-28.785-.523-28.299-.537 12m115.233-36.25-1.331 3.25 8.181.5c11.664.713 13.585 2.945 9.473 11.006-2.762 5.413-4.694 6.168-15.031 5.869-4.905-.141-9.114-.058-9.353.184-.701.709-8.613 20.884-8.613 21.961 0 1.129 11.967 1.318 13.562.215.584-.404 2.079-3.272 3.321-6.373l2.258-5.638 6.409-.408c9.154-.583 13.767-4.005 18.67-13.847 4.687-9.411 5.034-14.837 1.145-17.896C142.022 88.23 140.36 88 129.368 88h-12.362zm44.466 2.855c-7.149 1.462-11.483 6.79-16.616 20.426-3.35 8.902-3.341 14.353.03 17.52 2.39 2.245 3.302 2.4 14.2 2.424l11.646.025 3.169-8c1.742-4.4 5.449-13.503 8.237-20.229 2.788-6.727 4.726-12.442 4.306-12.702-1.076-.665-21.213-.233-24.972.536m32.36.248c-1.65.755-3.83 2.305-4.845 3.444-2.368 2.657-4.535 8.946-3.908 11.342.469 1.794 4.3 5.422 9.67 9.158 3.091 2.15 3.492 5.703.645 5.703-1.494 0-1.895-.631-1.75-2.75.187-2.737.153-2.751-6.967-3.042l-7.155-.292-.674 3.991c-1.373 8.128 4.162 13.089 14.609 13.091 8.527.003 11.785-.974 15.442-4.631 3.75-3.751 5.275-9.223 3.597-12.907-.598-1.313-3.017-3.577-5.376-5.032-2.358-1.455-4.82-3.315-5.469-4.134-1.511-1.904-.612-4.294 1.615-4.294 1.342 0 1.623.659 1.279 3l-.44 3h15.136l.647-3.446c.853-4.549-.549-8.46-3.942-10.993-3.493-2.609-17.397-3.369-22.114-1.208m38.501-.23c-3.636 1.45-6.504 4.449-8.51 8.897-2.438 5.405-.901 8.761 6.159 13.448 5.564 3.694 6.778 6.633 3.038 7.354-1.431.275-1.729-.224-1.489-2.489l.301-2.833-6.91-.299c-7.743-.336-8.55.213-8.575 5.826-.031 7.14 5.535 10.973 15.933 10.973 8.254 0 13.029-2.111 16.345-7.226 4.669-7.2 3.557-10.889-4.911-16.306-3.909-2.501-5.386-4.015-4.972-5.095.325-.845.59-1.725.59-1.955 0-.23.675-.418 1.5-.418 1.005 0 1.5 1.005 1.5 3.044v3.044l7.25-.294 7.25-.294.303-4.716c.376-5.832-.759-8.061-5.17-10.154-3.86-1.832-15.553-2.133-19.632-.507M64.162 102.25c-.69 2.338-1.496 4.813-1.791 5.5-.424.986 6.467 1.25 32.587 1.25h33.124l1.819-4.25c1-2.338 1.608-4.812 1.352-5.5-.361-.965-7.92-1.25-33.153-1.25H65.415zm-30.978 2.019C30.24 111.372 30.353 112 34.577 112c6.331 0 11.954-8.069 8.223-11.8-.66-.66-2.602-1.2-4.316-1.2-2.817 0-3.325.505-5.3 5.269m128.114.933c-1.784 2.254-7.385 17.847-6.769 18.844.849 1.375 5.054 1.174 6.203-.296 1.862-2.382 6.469-15.469 6.109-17.355-.429-2.251-4.084-3.038-5.543-1.193m-101.426 8.032c-.509.954-2.488 5.83-4.399 10.836-4.374 11.463-4.631 17.493-.894 21.006 2.251 2.115 3.705 2.468 11.406 2.77l8.827.346-4.904 8.154c-6.046 10.052-6.166 11.108-1.158 10.186 5.893-1.085 11.351-4.61 15.365-9.924 3.044-4.029 11.056-22.633 18.475-42.9.603-1.646-.02-1.769-7.588-1.5l-8.245.292-4.129 10.661c-4.85 12.526-6.767 15.059-11.077 14.638-3.811-.373-4.429-3.172-2.015-9.122a626.681 626.681 0 0 0 4.042-10.349l2.346-6.173-7.563-.327c-6.367-.276-7.71-.054-8.489 1.406M23.495 128.75a3893.944 3893.944 0 0 0-3.214 8c-.835 2.108 7.079 1.541 9.944-.712 2.645-2.081 5.419-9.916 4.427-12.503-.391-1.019-1.908-1.535-4.514-1.535-3.911 0-3.935.025-6.643 6.75m72.456 14c-2.48 7.72-7.329 16.456-11.539 20.788l-4.35 4.475 75.095-.257 75.094-.256 2.759-7.184c3.042-7.92 5.517-11.927 10.85-17.566l3.546-3.75H97.155z"/></svg>